<?xml version="1.0" standalone="no"?>
<!DOCTYPE svg PUBLIC "-//W3C//DTD SVG 20010904//EN"
 "http://www.w3.org/TR/2001/REC-SVG-20010904/DTD/svg10.dtd">
<svg version="1.0" xmlns="http://www.w3.org/2000/svg"
 width="136.000000pt" height="175.000000pt" viewBox="0 0 136.000000 175.000000"
 preserveAspectRatio="xMidYMid meet">
<metadata>
Created by potrace 1.15, written by Peter Selinger 2001-2017
</metadata>
<g transform="translate(0.000000,175.000000) scale(0.100000,-0.100000)"
fill="#000000" stroke="none">
<path d="M0 875 c0 -577 3 -875 10 -875 6 0 10 10 11 23 0 12 4 59 7 105 6 69
5 82 -8 82 -9 1 -6 6 10 16 l25 15 -25 -6 -25 -6 25 20 c14 11 28 21 32 21 8
0 5 -21 -5 -37 -4 -6 -3 -14 1 -17 5 -3 10 -26 10 -52 1 -25 5 -51 9 -57 3 -6
1 -7 -5 -3 -9 5 -12 -9 -12 -48 0 -53 1 -56 24 -56 22 0 25 5 30 48 5 42 20
127 34 189 3 18 0 23 -14 23 -16 0 -17 -2 -4 -10 12 -7 12 -12 2 -22 -9 -9
-12 -9 -12 5 0 20 -11 22 -29 4 -11 -9 -13 -9 -7 1 4 6 2 12 -4 12 -6 0 -8 5
-5 11 4 6 13 8 21 5 7 -3 35 2 61 11 26 9 43 18 36 20 -6 2 -28 -3 -48 -11
-43 -18 -48 -19 -41 -8 9 15 -39 7 -63 -10 -30 -21 -42 -14 -15 8 19 15 19 16
0 9 -19 -6 -19 -5 -1 15 13 14 22 17 29 10 14 -14 29 -13 20 3 -6 9 -4 9 7 -1
20 -19 34 -14 18 6 -8 10 -4 8 8 -5 22 -23 39 -31 28 -14 -3 6 5 15 17 21 22
11 22 10 4 -4 -20 -16 -11 -21 18 -10 9 3 14 10 11 14 -3 5 -1 12 5 15 6 4 10
3 9 -2 -3 -20 2 -34 11 -28 6 4 8 11 4 16 -3 5 0 17 8 26 11 14 10 15 -12 9
-24 -7 -24 -6 -6 8 30 24 33 20 31 -31 -1 -39 -5 -47 -18 -45 -11 2 -15 -2
-11 -13 3 -8 1 -15 -5 -15 -6 0 -11 -5 -11 -11 0 -5 5 -7 11 -3 8 4 9 -1 4
-17 -5 -13 -11 -39 -16 -57 -4 -19 -11 -37 -15 -40 -6 -7 -3 18 11 84 5 22 4
25 -4 14 -6 -8 -11 -10 -11 -5 0 6 7 21 16 33 8 12 12 22 7 21 -14 -1 -48 -18
-38 -18 6 -1 11 -20 11 -44 1 -32 0 -37 -7 -22 -7 15 -8 12 -4 -14 3 -18 5
-44 5 -58 0 -13 4 -22 9 -18 6 3 12 -19 14 -52 l3 -58 2 69 c2 68 27 182 43
200 5 6 0 -23 -11 -62 -12 -43 -20 -99 -19 -139 l1 -68 9 60 c5 33 7 65 5 70
-2 6 3 17 12 24 14 13 14 11 8 -20 -16 -76 -19 -129 -7 -129 6 0 12 20 13 48
l1 47 7 -50 7 -50 1 50 c1 28 13 101 26 163 13 62 20 112 17 112 -4 0 -13 -33
-20 -74 -7 -40 -18 -80 -23 -87 -10 -15 -6 23 14 114 7 36 16 51 37 61 25 13
27 13 28 -5 1 -11 7 -36 13 -55 11 -33 13 -34 27 -17 13 16 13 16 2 -7 -18
-36 -38 -138 -38 -185 1 -35 2 -37 9 -15 7 22 8 21 9 -12 1 -21 6 -38 12 -38
7 0 9 9 5 23 -3 12 -6 32 -6 45 0 13 -4 20 -10 17 -15 -10 0 76 18 100 l14 20
-7 -20 c-11 -28 -9 -92 3 -145 9 -40 10 -35 5 36 -3 45 -1 84 4 87 5 3 7 -10
5 -29 -2 -19 0 -34 4 -34 5 0 7 -22 6 -50 l-4 -50 47 0 c45 0 47 1 43 25 -3
13 -1 22 3 19 5 -3 9 -14 9 -25 0 -17 7 -19 58 -19 l57 0 -26 18 c-58 39 -87
78 -38 52 15 -8 19 -7 19 4 0 13 5 14 28 5 40 -16 150 -13 205 6 26 9 56 13
67 10 16 -5 17 -10 8 -38 -6 -18 -15 -38 -21 -44 -7 -10 -4 -13 11 -13 11 0
23 8 25 18 4 16 5 16 6 0 2 -26 21 -22 22 5 1 21 1 21 9 -3 4 -14 8 -18 9 -11
1 12 4 12 13 3 15 -15 38 -16 38 -1 0 5 -4 7 -10 4 -6 -4 -10 18 -10 58 0 48
-4 66 -15 71 -8 3 -15 12 -15 21 0 32 39 -23 43 -62 3 -22 4 -15 3 17 -1 30
-6 64 -11 75 -8 18 -7 19 8 6 13 -10 17 -32 19 -100 l2 -86 6 80 6 80 4 -90
c4 -87 4 -85 10 50 l6 140 2 -132 c1 -72 5 -134 10 -136 4 -3 6 46 4 109 -2
64 1 114 6 114 12 0 24 -157 16 -201 -5 -27 -4 -32 6 -22 10 9 10 39 3 135 -5
68 -6 127 -2 131 4 5 10 -44 13 -110 9 -158 13 -183 14 -93 1 41 -3 118 -8
170 -5 52 -5 99 -1 103 5 5 12 -44 15 -110 9 -160 16 -186 11 -39 -5 130 2
146 15 39 l9 -68 -4 85 c-3 55 -1 79 5 69 5 -9 13 -76 18 -150 8 -111 10 -122
12 -64 1 39 5 60 7 48 8 -40 26 -26 19 15 -3 20 -6 61 -6 90 0 29 -4 51 -9 48
-4 -3 -8 4 -7 16 1 16 -5 22 -24 23 -14 1 -29 -3 -33 -9 -6 -7 -7 -6 -4 4 2 8
-5 21 -17 28 -20 13 -20 13 3 6 15 -4 21 -2 17 4 -3 6 -2 13 3 17 6 3 8 -4 6
-16 -3 -16 -1 -19 13 -14 29 11 37 10 34 -4 -2 -9 3 -11 13 -7 9 3 26 -1 39
-9 12 -8 26 -12 31 -8 4 5 5 3 1 -4 -4 -7 -14 -9 -24 -6 -15 5 -14 4 1 -9 16
-12 20 -33 24 -114 3 -54 7 -101 10 -104 3 -3 3 34 0 83 -3 51 -1 90 5 93 5 3
2 14 -8 25 -17 19 -17 19 6 16 12 -2 29 -12 36 -22 8 -11 14 -13 14 -6 0 7 5
9 10 6 7 -4 10 240 10 724 l0 731 -680 0 -680 0 0 -875z m798 390 c10 -14 42
-18 42 -5 0 5 5 10 11 10 6 0 9 -7 5 -15 -3 -9 0 -15 9 -15 8 0 15 -5 15 -11
0 -5 4 -8 8 -5 12 7 45 -61 39 -78 -7 -18 -27 -22 -27 -5 0 5 -5 7 -10 4 -6
-4 -8 -15 -5 -24 6 -20 -20 -36 -75 -47 -19 -3 -51 -16 -70 -27 -35 -19 -35
-21 -36 -83 0 -60 -14 -97 -31 -80 -4 4 -9 37 -11 74 -2 37 -8 72 -14 78 -5 7
-39 20 -76 30 -86 22 -95 30 -88 72 4 28 2 35 -14 39 -30 8 -25 38 6 39 19 2
24 -2 20 -15 -6 -15 -5 -15 7 0 7 9 34 26 60 38 45 21 50 21 73 6 22 -14 25
-14 35 4 7 11 19 16 31 13 10 -2 18 0 18 5 0 12 69 10 78 -2z m202 -368 c17
-19 -12 -137 -34 -137 -15 -1 -46 -65 -46 -95 0 -14 -4 -25 -10 -25 -5 0 -7
-7 -4 -14 7 -19 -26 -77 -39 -69 -6 3 -8 2 -4 -3 10 -16 -21 -74 -40 -74 -13
0 -14 -3 -5 -8 22 -15 -59 -44 -130 -48 -38 -2 -68 0 -68 5 0 4 -12 14 -26 21
-14 8 -32 29 -40 48 -7 19 -19 32 -26 30 -12 -4 -48 51 -48 72 0 17 42 -9 75
-48 26 -29 39 -35 82 -39 76 -8 115 3 157 42 21 19 44 35 50 35 13 0 15 48 2
68 -12 20 -50 32 -58 18 -5 -8 -10 -8 -19 1 -10 10 -7 16 11 31 23 19 23 20 7
60 -17 43 -25 117 -14 128 4 4 13 2 20 -4 18 -16 98 -21 121 -9 11 5 31 20 45
34 23 21 26 22 29 6 2 -10 7 -22 12 -26z m-565 -7 c47 -24 70 -25 108 -5 22
11 29 12 33 1 9 -23 -3 -84 -19 -101 -16 -15 -14 -37 5 -62 6 -7 8 -18 6 -25
-3 -7 8 -19 25 -25 40 -18 47 -16 47 9 0 21 0 21 21 2 11 -10 16 -20 10 -22
-17 -6 -13 -20 7 -24 9 -2 -13 -4 -51 -4 -37 0 -61 3 -55 8 10 5 8 12 -8 28
l-20 21 -36 -25 -37 -25 -6 30 c-4 16 -11 29 -16 29 -6 0 -7 5 -3 11 3 6 -7
23 -24 38 -35 32 -47 54 -56 100 -6 31 6 61 23 61 4 0 24 -9 46 -20z"/>
</g>
</svg>
