<?xml version="1.0" standalone="no"?>
<!DOCTYPE svg PUBLIC "-//W3C//DTD SVG 20010904//EN"
 "http://www.w3.org/TR/2001/REC-SVG-20010904/DTD/svg10.dtd">
<svg version="1.0" xmlns="http://www.w3.org/2000/svg"
 width="300.000000pt" height="387.000000pt" viewBox="0 0 300.000000 387.000000"
 preserveAspectRatio="xMidYMid meet">
<metadata>
Created by potrace 1.10, written by Peter Selinger 2001-2011
</metadata>
<g transform="translate(0.000000,387.000000) scale(0.100000,-0.100000)"
fill="#000000" stroke="none">
<path d="M0 1935 l0 -1935 481 0 c509 0 491 -2 517 47 15 27 16 55 2 33 -7
-12 -10 -8 -10 15 0 26 2 27 15 15 8 -8 17 -34 21 -57 6 -40 5 -42 -22 -46
-16 -2 427 -5 984 -6 l1012 -1 0 1935 0 1935 -1500 0 -1500 0 0 -1935z m2990
340 c0 -1665 1 -1620 -40 -1570 -7 8 -16 15 -20 15 -5 0 -40 18 -79 40 -38 22
-85 48 -104 59 -19 11 -38 17 -42 13 -3 -3 -9 -2 -13 3 -12 16 -65 43 -158 79
-155 61 -204 83 -197 89 3 4 -4 7 -17 7 -26 0 -60 26 -60 47 0 7 -4 13 -10 13
-5 0 -10 6 -10 14 0 18 -62 137 -68 131 -3 -2 5 -20 17 -40 11 -20 21 -43 21
-51 0 -8 5 -14 10 -14 6 0 10 -7 10 -15 0 -19 29 -67 47 -78 8 -5 11 -12 8
-18 -4 -5 3 -9 14 -9 10 0 27 -3 36 -6 13 -6 14 -9 3 -16 -9 -7 -8 -8 5 -4 10
3 37 -3 61 -13 23 -11 54 -23 69 -26 15 -4 25 -11 22 -16 -3 -4 3 -13 14 -18
30 -16 40 -12 11 4 -14 8 -19 14 -10 15 14 0 164 -68 245 -112 114 -61 192
-102 212 -112 l23 -11 0 -332 0 -333 -220 0 -219 0 7 33 c13 57 6 377 -11 524
-21 178 -21 194 -2 187 15 -6 15 -6 39 -239 17 -157 20 -343 7 -433 -8 -57 3
-83 13 -29 17 92 18 305 2 403 -9 56 -16 135 -17 175 -1 102 -7 116 -62 148
-26 15 -44 31 -40 36 5 4 2 5 -4 1 -18 -10 -138 35 -121 45 7 5 9 9 3 9 -5 0
-17 -5 -25 -10 -20 -14 -8 -21 94 -56 l81 -27 2 -66 c1 -36 9 -148 18 -249 24
-293 19 -452 -15 -452 -16 0 -17 5 -8 43 9 37 4 313 -7 380 -2 12 -9 94 -15
182 -7 88 -14 162 -16 164 -15 16 -15 -35 0 -226 34 -458 34 -543 -4 -543 -16
0 -17 4 -8 38 6 22 8 79 4 142 -15 247 -18 289 -27 370 -5 47 -9 118 -9 158 0
41 -4 72 -10 72 -13 0 -13 -127 -1 -240 17 -152 33 -459 26 -500 -5 -30 -12
-40 -25 -40 -13 0 -17 5 -13 20 3 12 -2 28 -10 38 -12 13 -17 44 -20 122 l-3
105 -2 -123 c-1 -70 2 -132 8 -143 10 -18 7 -19 -39 -19 l-49 0 -5 37 c-14
113 -7 362 19 700 11 139 25 82 19 -75 -17 -456 -15 -652 6 -652 5 0 8 39 7
88 -4 159 4 694 10 688 3 -4 7 -46 9 -94 1 -48 9 -166 17 -262 8 -96 18 -217
22 -268 4 -61 10 -90 16 -84 10 10 5 90 -27 489 -8 100 -12 189 -9 197 3 9 -1
23 -10 31 -9 9 -16 14 -16 10 0 -21 -34 32 -37 58 -5 48 -14 46 -11 -4 1 -24
-4 -100 -11 -169 -24 -247 -36 -626 -21 -670 3 -9 -3 -16 -17 -18 l-22 -3 4
173 c4 190 30 530 45 593 5 22 9 56 9 75 -1 19 -3 28 -4 20 -38 -194 -84 -756
-66 -805 11 -28 2 -55 -18 -55 -15 0 -17 12 -14 113 5 144 48 581 68 672 8 39
14 86 13 105 -1 33 -1 33 -5 5 -2 -16 -10 -61 -18 -100 -20 -92 -66 -520 -71
-660 -2 -60 -6 -116 -9 -122 -3 -9 -32 -13 -96 -13 l-91 0 5 38 5 37 -11 -37
-11 -38 -307 0 -308 0 -61 43 c-34 23 -76 50 -93 59 -17 10 -37 29 -44 43 -13
24 -33 34 -33 16 0 -20 13 -41 21 -35 5 3 12 -2 15 -10 3 -9 13 -16 21 -16 8
0 29 -17 48 -37 20 -22 45 -38 62 -41 15 -2 32 -7 37 -13 6 -5 -37 -9 -115 -9
l-124 0 -1 83 c-1 74 0 78 10 45 6 -20 14 -40 19 -44 4 -4 7 -22 7 -41 0 -18
5 -33 11 -33 7 0 9 12 4 36 -4 24 -3 34 4 29 6 -3 11 -19 11 -36 0 -16 5 -29
11 -29 6 0 8 12 6 28 -8 43 -17 60 -37 65 -24 6 -49 115 -30 127 7 4 9 13 5
20 -4 6 -7 28 -7 48 0 20 -6 67 -13 103 -6 36 -10 80 -7 97 2 19 -2 41 -10 55
-19 28 -37 83 -40 120 -1 15 -5 27 -9 27 -4 0 -10 19 -14 43 -4 23 -12 48 -17
54 -6 7 -8 20 -4 28 4 10 2 14 -5 9 -7 -4 -10 -1 -7 7 3 8 -3 31 -14 52 -10
21 -16 43 -12 50 5 8 4 9 -4 2 -14 -13 16 -167 31 -158 6 4 8 -2 5 -15 -4 -12
-1 -22 4 -22 6 0 8 -13 4 -32 -4 -22 -3 -28 3 -19 10 16 15 2 51 -154 44 -186
49 -228 34 -246 -8 -8 -14 -23 -14 -32 0 -9 -4 -17 -10 -17 -5 0 -10 9 -10 20
0 11 4 20 8 20 13 0 -9 123 -26 142 -19 22 -43 7 -41 -26 1 -17 2 -18 6 -3 2
9 9 15 14 12 5 -4 6 2 2 12 -6 16 -5 16 11 4 13 -11 16 -23 11 -55 -5 -30 -3
-37 4 -26 8 11 10 6 10 -25 -1 -22 -3 -32 -6 -22 -2 9 -9 15 -14 12 -5 -4 -9
-3 -10 2 -2 22 -10 57 -14 62 -15 14 -2 -54 14 -77 11 -15 22 -45 25 -67 3
-22 3 -32 0 -22 -3 9 -10 17 -14 17 -6 0 -5 -11 1 -26 11 -30 3 -46 -11 -24
-14 21 -12 6 2 -25 9 -19 9 -28 0 -37 -9 -9 -12 -6 -13 12 -1 23 -1 23 -10 -5
-5 -16 -7 -44 -4 -60 4 -23 0 -35 -15 -48 -25 -21 -40 -22 -40 -2 0 8 -5 15
-11 15 -6 0 -9 -7 -5 -15 4 -12 -4 -15 -38 -15 l-44 0 -11 75 c-6 42 -12 95
-12 118 l-1 42 -9 -40 c-4 -22 -7 -74 -7 -115 1 -67 2 -70 8 -30 6 37 7 40 8
13 1 -17 5 -38 8 -47 5 -14 -5 -16 -75 -16 l-81 0 0 84 c0 59 10 132 35 243
19 87 41 201 49 253 8 52 18 112 22 132 4 23 3 38 -3 38 -6 0 -13 -24 -17 -53
-10 -86 -16 -118 -36 -212 -11 -49 -31 -145 -46 -211 -18 -88 -25 -143 -22
-198 l3 -76 -317 0 -318 0 0 241 0 241 25 -4 c13 -3 22 -2 20 2 -4 7 57 50 70
50 2 0 2 -8 1 -17 -2 -10 -25 -29 -54 -43 -29 -14 -52 -29 -52 -33 0 -5 5 -5
11 -1 12 7 11 -1 -7 -326 -3 -67 -2 -90 5 -79 6 9 16 104 22 210 10 193 11
194 37 216 34 28 40 28 45 1 2 -13 3 -8 1 9 -1 18 2 33 8 33 7 0 8 -30 4 -87
-3 -49 -8 -142 -11 -208 -3 -66 -8 -137 -11 -158 -3 -21 -2 -37 4 -37 14 0 21
67 27 245 3 83 8 170 11 194 5 31 3 46 -7 52 -11 6 -10 9 4 15 9 3 31 19 47
34 33 31 220 104 233 91 18 -18 -75 -57 -109 -45 -15 5 -16 4 -4 -5 12 -8 12
-11 -4 -17 -10 -4 -31 -7 -46 -8 -15 -1 -26 -4 -24 -8 2 -4 -5 -9 -16 -13 -29
-9 -52 -48 -55 -92 -1 -21 -5 -128 -8 -238 l-6 -200 9 175 c13 254 28 339 61
340 4 0 -2 -37 -12 -81 -23 -97 -51 -454 -34 -438 2 3 7 59 10 124 8 158 71
491 75 400 1 -20 1 -20 10 0 16 37 10 -2 -20 -136 -35 -153 -54 -379 -33 -379
10 0 13 26 13 101 0 80 8 134 37 262 20 89 40 167 45 173 5 6 35 21 67 33 57
20 113 70 163 143 18 27 171 93 194 84 13 -5 16 -15 48 -156 51 -224 72 -338
91 -510 9 -82 16 -110 26 -110 4 0 7 12 4 28 -2 15 -14 90 -25 167 -23 155
-30 190 -91 449 -24 99 -44 175 -47 168 -2 -7 -11 -12 -21 -12 -9 0 -53 -18
-98 -39 -60 -29 -86 -48 -102 -75 -14 -21 -27 -33 -34 -29 -7 3 -9 2 -4 -2 4
-5 -3 -19 -15 -32 -23 -25 -48 -32 -28 -8 7 8 9 15 4 15 -5 0 7 15 27 33 20
18 44 45 53 60 22 32 87 71 170 101 l63 23 42 -171 c23 -94 41 -178 41 -187 0
-9 6 -32 14 -50 16 -40 60 -277 61 -331 0 -20 3 -34 8 -31 6 4 12 -44 8 -74
-1 -7 3 -13 9 -13 11 0 8 47 -10 135 -5 28 -17 88 -25 135 -15 85 -31 155
-100 431 -20 81 -38 155 -39 165 -2 11 -11 20 -22 22 -16 3 -17 1 -4 -7 11 -8
12 -11 2 -11 -31 0 -163 -71 -205 -109 -24 -22 -48 -37 -52 -33 -5 4 -5 2 -2
-5 18 -31 -160 -138 -194 -117 -7 4 -9 3 -6 -3 4 -6 -10 -17 -31 -26 -21 -9
-59 -31 -85 -51 -59 -45 -70 -31 -16 19 43 38 119 77 200 101 30 9 60 29 85
55 73 77 243 187 266 173 7 -4 8 -3 4 5 -5 7 3 13 23 17 17 4 31 13 31 21 0
16 -27 4 -121 -53 -30 -19 -65 -36 -77 -39 -31 -6 -62 -24 -42 -25 13 0 13 -2
1 -9 -8 -5 -23 -8 -34 -6 -14 3 -16 1 -8 -9 6 -7 8 -16 4 -19 -9 -10 -25 -9
-19 1 6 11 -51 8 -62 -3 -4 -4 3 -4 16 -1 45 14 20 -3 -35 -24 -114 -42 -281
-132 -298 -160 -9 -15 -28 -12 -19 3 4 7 3 9 -2 4 -5 -5 -9 -14 -9 -20 0 -5
-5 -12 -11 -14 -6 -2 -11 4 -11 13 0 29 130 101 519 289 98 47 178 88 178 90
0 6 -40 -10 -80 -30 -17 -9 -36 -13 -42 -9 -7 5 -8 3 -3 -6 6 -9 1 -10 -16 -5
-16 4 -20 3 -11 -3 10 -7 6 -12 -17 -21 -16 -7 -35 -10 -42 -5 -8 5 -9 3 -4
-6 6 -9 1 -10 -16 -5 -18 5 -20 4 -9 -4 12 -8 11 -11 -5 -17 -57 -19 -151 -65
-242 -116 -56 -32 -105 -58 -108 -58 -12 0 -135 -82 -135 -91 0 -4 6 -6 14 -3
21 8 14 -26 -7 -38 -15 -8 -17 -1 -17 72 0 51 4 80 11 80 11 0 67 23 101 41
10 5 23 9 30 9 7 0 -16 -16 -51 -35 -36 -19 -70 -40 -75 -47 -6 -6 23 7 64 30
41 22 74 46 72 53 -2 7 3 9 13 6 8 -4 15 -2 15 3 0 6 5 10 11 10 6 0 40 14 76
31 35 17 67 29 69 26 4 -4 -201 -125 -284 -167 -24 -12 -42 -24 -39 -26 5 -6
169 83 294 158 48 30 87 47 94 42 7 -4 10 -3 6 3 -9 15 8 26 80 53 35 12 63
26 63 31 0 5 3 8 8 7 4 0 16 2 27 6 76 29 88 35 72 35 -19 1 -101 -29 -222
-81 -38 -17 -79 -34 -90 -38 -11 -4 -45 -19 -75 -32 -30 -14 -93 -40 -140 -58
-47 -18 -89 -37 -95 -42 -36 -31 -35 -55 -35 1562 l0 1570 1490 0 1490 0 0
-1585z m-2610 -1425 c-8 -5 -19 -10 -25 -10 -5 0 -3 5 5 10 8 5 20 10 25 10 6
0 3 -5 -5 -10z m195 0 c-3 -5 -12 -10 -18 -10 -7 0 -6 4 3 10 19 12 23 12 15
0z m-124 -99 c-17 -17 -53 -37 -80 -45 -26 -8 -77 -28 -111 -45 -37 -18 -67
-28 -72 -23 -11 11 37 44 67 46 13 0 21 4 19 7 -4 7 32 25 104 50 28 10 62 25
74 33 34 24 33 11 -1 -23z m-267 -120 c7 -12 -40 -54 -53 -47 -5 4 -13 1 -17
-5 -5 -8 -3 -9 6 -4 9 5 11 4 6 -4 -8 -13 -71 -54 -98 -64 -13 -5 -18 -1 -18
13 0 11 7 20 16 20 9 0 12 -5 8 -12 -4 -7 -3 -8 5 -4 6 4 9 11 6 16 -3 5 3 14
14 19 26 14 34 14 25 -1 -4 -8 -3 -10 2 -5 5 5 9 13 9 18 0 9 66 68 77 69 4 0
9 -4 12 -9z m884 -107 c-3 -14 -5 -12 -10 9 -3 19 -2 25 4 19 6 -6 8 -18 6
-28z m2 -313 c-9 -17 -8 -20 5 -15 18 7 19 -5 1 -29 -10 -12 -12 -39 -10 -87
4 -58 2 -70 -11 -70 -11 0 -15 11 -15 38 0 21 -4 42 -10 48 -9 9 -2 49 21 114
6 19 14 42 17 50 4 11 7 9 9 -7 3 -12 -1 -31 -7 -42z"/>
<path d="M1448 3623 c18 -2 45 -2 60 0 15 2 0 4 -33 4 -33 0 -45 -2 -27 -4z"/>
<path d="M1588 3613 c7 -3 16 -2 19 1 4 3 -2 6 -13 5 -11 0 -14 -3 -6 -6z"/>
<path d="M1620 3600 c-7 -14 -7 -20 0 -20 5 0 10 5 10 10 0 13 22 13 57 -2 15
-6 32 -10 37 -9 4 1 14 -3 22 -10 7 -6 17 -8 23 -5 5 3 11 0 14 -8 3 -9 15
-12 31 -9 15 3 26 1 26 -6 0 -5 -8 -8 -17 -5 -15 5 -16 4 -3 -5 9 -6 18 -7 24
-1 6 6 16 5 25 -4 19 -16 71 -30 71 -19 0 11 -95 53 -119 53 -11 0 -22 4 -25
9 -5 8 -40 18 -95 28 -14 2 -32 8 -42 14 -24 13 -27 12 -39 -11z"/>
<path d="M1446 3603 c-4 -4 -75 -14 -106 -15 -8 0 -42 -6 -74 -14 -33 -7 -63
-11 -67 -8 -4 2 -10 0 -14 -6 -3 -5 3 -10 14 -10 15 0 19 -4 14 -17 -5 -12 -1
-11 15 5 12 12 28 23 35 23 6 1 26 2 42 4 17 1 51 5 77 9 57 9 121 -1 111 -18
-4 -6 2 -4 12 4 17 14 17 15 -8 18 -52 6 -16 21 41 17 47 -3 52 -3 27 5 -28 9
-111 11 -119 3z"/>
<path d="M1540 3569 c0 -5 19 -9 42 -9 49 0 47 5 -4 13 -21 3 -38 2 -38 -4z"/>
<path d="M1656 3565 c4 -9 19 -15 38 -15 22 0 27 3 17 9 -8 5 -21 7 -29 3 -10
-3 -13 -1 -8 6 4 7 1 12 -8 12 -10 0 -13 -6 -10 -15z"/>
<path d="M1090 3566 c0 -2 9 -6 20 -9 11 -3 20 -1 20 4 0 5 -9 9 -20 9 -11 0
-20 -2 -20 -4z"/>
<path d="M1150 3555 c0 -8 -4 -15 -10 -15 -5 0 -10 -4 -10 -10 0 -5 15 -10 33
-9 21 0 26 3 16 7 -9 4 -15 15 -13 25 1 9 -2 17 -7 17 -5 0 -9 -7 -9 -15z"/>
<path d="M1406 3561 c-14 -5 -16 -10 -8 -15 7 -4 19 0 28 8 17 17 11 19 -20 7z"/>
<path d="M1312 3550 c-35 -4 -68 -13 -75 -20 -10 -10 -8 -11 8 -5 11 4 46 10
78 13 31 2 57 8 57 13 0 5 -1 8 -2 8 -2 -1 -31 -5 -66 -9z"/>
<path d="M1620 3550 c-8 -5 -10 -10 -5 -10 6 0 17 5 25 10 8 5 11 10 5 10 -5
0 -17 -5 -25 -10z"/>
<path d="M1038 3543 c7 -3 16 -2 19 1 4 3 -2 6 -13 5 -11 0 -14 -3 -6 -6z"/>
<path d="M1913 3543 c9 -2 23 -2 30 0 6 3 -1 5 -18 5 -16 0 -22 -2 -12 -5z"/>
<path d="M1641 3536 c2 -2 15 -9 29 -15 24 -11 24 -11 6 3 -16 13 -49 24 -35
12z"/>
<path d="M1963 3529 c-6 -6 -9 -18 -6 -26 3 -7 2 -13 -3 -12 -22 4 -34 -2 -34
-18 0 -15 2 -14 15 3 8 11 15 14 15 7 0 -7 8 -13 18 -13 9 0 29 -7 45 -14 22
-12 27 -12 27 -2 0 15 -54 41 -67 33 -5 -3 -9 3 -9 14 0 10 6 19 13 19 6 0 15
5 18 10 8 14 -18 13 -32 -1z"/>
<path d="M1046 3521 c-11 -4 -15 -10 -10 -14 6 -3 16 -2 24 3 8 5 19 5 25 0 6
-5 17 -5 25 0 8 6 11 10 5 11 -5 0 -19 2 -30 4 -11 2 -29 0 -39 -4z"/>
<path d="M965 3510 c-3 -6 1 -7 9 -4 18 7 21 14 7 14 -6 0 -13 -4 -16 -10z"/>
<path d="M2042 3505 c4 -7 5 -15 2 -18 -4 -4 4 -11 17 -16 35 -13 83 -57 75
-69 -3 -5 1 -13 10 -16 26 -10 27 -7 9 21 -19 28 -70 75 -80 73 -3 0 -14 7
-23 18 -9 10 -14 13 -10 7z"/>
<path d="M1268 3503 c7 -3 16 -2 19 1 4 3 -2 6 -13 5 -11 0 -14 -3 -6 -6z"/>
<path d="M2000 3500 c8 -5 20 -10 25 -10 6 0 3 5 -5 10 -8 5 -19 10 -25 10 -5
0 -3 -5 5 -10z"/>
<path d="M972 3489 c-13 -5 -21 -13 -17 -18 3 -5 0 -13 -6 -17 -8 -4 -9 -3 -5
4 4 7 3 12 -3 12 -20 0 -21 -19 -2 -29 26 -14 32 -14 29 2 -2 6 6 12 17 13 40
2 46 4 40 14 -3 6 0 10 7 11 7 0 4 4 -7 9 -25 11 -25 11 -53 -1z m38 -7 c0
-13 -12 -22 -22 -16 -10 6 -1 24 13 24 5 0 9 -4 9 -8z"/>
<path d="M1084 3483 c11 -11 48 -14 41 -3 -3 5 -16 10 -27 10 -12 0 -18 -3
-14 -7z"/>
<path d="M1208 3483 c6 -2 18 -2 25 0 6 3 1 5 -13 5 -14 0 -19 -2 -12 -5z"/>
<path d="M1300 3481 c0 -6 4 -13 10 -16 6 -3 7 1 4 9 -7 18 -14 21 -14 7z"/>
<path d="M873 3416 c-22 -17 -47 -42 -55 -56 -22 -41 -79 -85 -105 -82 -17 3
-23 -1 -23 -16 0 -19 18 -32 43 -32 6 0 3 6 -7 13 -15 11 -12 14 28 26 25 7
44 17 41 21 -6 10 20 32 28 24 3 -3 11 13 17 36 7 27 16 40 24 37 7 -3 20 3
29 13 8 10 24 17 34 16 10 -2 12 -1 5 1 -7 3 -10 8 -7 13 13 22 -14 14 -52
-14z"/>
<path d="M1305 3441 c-3 -5 0 -13 6 -17 7 -4 9 -3 5 4 -3 5 0 13 6 15 9 4 10
6 1 6 -6 1 -14 -3 -18 -8z"/>
<path d="M2000 3442 c0 -13 15 -28 33 -35 23 -9 22 -5 -8 21 -14 12 -25 19
-25 14z"/>
<path d="M1025 3430 c-3 -5 -1 -10 4 -10 6 0 11 5 11 10 0 6 -2 10 -4 10 -3 0
-8 -4 -11 -10z"/>
<path d="M2081 3408 c19 -18 36 -32 37 -31 13 6 -27 57 -47 60 -21 3 -21 1 10
-29z"/>
<path d="M1155 3420 c-16 -7 -17 -9 -3 -9 9 -1 20 4 23 9 7 11 7 11 -20 0z"/>
<path d="M1235 3420 c3 -5 8 -10 11 -10 2 0 4 5 4 10 0 6 -5 10 -11 10 -5 0
-7 -4 -4 -10z"/>
<path d="M1930 3406 c0 -2 9 -6 20 -9 11 -3 20 -1 20 4 0 5 -9 9 -20 9 -11 0
-20 -2 -20 -4z"/>
<path d="M1250 3390 c-13 -8 -12 -10 3 -10 9 0 17 5 17 10 0 12 -1 12 -20 0z"/>
<path d="M1900 3396 c0 -3 9 -10 20 -16 11 -6 20 -8 20 -6 0 3 -9 10 -20 16
-11 6 -20 8 -20 6z"/>
<path d="M1163 3374 c-39 -17 -42 -24 -8 -24 14 0 29 8 35 20 6 11 9 20 8 19
-2 0 -18 -7 -35 -15z"/>
<path d="M2157 3353 c6 -16 5 -17 -12 -3 -17 14 -17 14 -5 -7 8 -12 18 -19 22
-17 4 3 8 1 8 -5 0 -5 -6 -12 -12 -14 -8 -3 -5 -6 6 -6 14 -1 17 4 12 22 -3
12 -6 28 -6 35 0 6 -4 12 -10 12 -5 0 -6 -8 -3 -17z"/>
<path d="M2186 3350 c4 -14 8 -32 9 -40 0 -9 4 -21 8 -27 4 -7 1 -26 -7 -42
-15 -27 -14 -30 9 -55 14 -15 30 -24 35 -21 6 4 18 1 26 -6 9 -7 25 -14 37
-16 49 -7 57 -10 64 -18 5 -4 2 -5 -4 -1 -8 4 -13 1 -13 -8 0 -9 8 -16 19 -16
22 0 51 -35 51 -62 0 -10 4 -18 8 -18 4 0 7 -25 7 -55 -1 -31 2 -58 7 -61 5
-3 6 -10 3 -15 -3 -5 0 -7 7 -4 14 6 16 56 3 95 -10 29 -11 36 -13 72 -2 35
-92 108 -133 108 -15 0 -31 5 -34 10 -3 6 -16 10 -29 10 -29 0 -47 36 -35 69
10 24 -2 84 -22 111 -8 11 -9 9 -3 -10z"/>
<path d="M2095 3350 c3 -5 8 -10 11 -10 2 0 4 5 4 10 0 6 -5 10 -11 10 -5 0
-7 -4 -4 -10z"/>
<path d="M966 3342 c-2 -4 4 -8 14 -8 10 0 16 4 14 8 -3 4 -9 8 -14 8 -5 0
-11 -4 -14 -8z"/>
<path d="M1085 3330 c-3 -5 -2 -10 4 -10 5 0 13 5 16 10 3 6 2 10 -4 10 -5 0
-13 -4 -16 -10z"/>
<path d="M1435 3320 c-3 -5 -1 -10 4 -10 6 0 11 5 11 10 0 6 -2 10 -4 10 -3 0
-8 -4 -11 -10z"/>
<path d="M2065 3320 c3 -5 8 -10 11 -10 2 0 4 5 4 10 0 6 -5 10 -11 10 -5 0
-7 -4 -4 -10z"/>
<path d="M1700 3300 c-9 -6 -10 -10 -3 -10 6 0 15 5 18 10 8 12 4 12 -15 0z"/>
<path d="M1168 3293 c7 -3 16 -2 19 1 4 3 -2 6 -13 5 -11 0 -14 -3 -6 -6z"/>
<path d="M1418 3293 c7 -3 16 -2 19 1 4 3 -2 6 -13 5 -11 0 -14 -3 -6 -6z"/>
<path d="M1055 3279 c-4 -6 -5 -12 -2 -15 2 -3 7 2 10 11 7 17 1 20 -8 4z"/>
<path d="M2172 3270 c0 -14 2 -19 5 -12 2 6 2 18 0 25 -3 6 -5 1 -5 -13z"/>
<path d="M900 3270 c-9 -6 -10 -10 -3 -10 6 0 15 5 18 10 8 12 4 12 -15 0z"/>
<path d="M780 3260 c-9 -6 -10 -10 -3 -10 6 0 15 5 18 10 8 12 4 12 -15 0z"/>
<path d="M1106 3261 c-3 -4 8 -8 23 -7 16 1 27 4 24 9 -6 10 -41 9 -47 -2z"/>
<path d="M1655 3260 c-3 -5 -1 -10 4 -10 6 0 11 5 11 10 0 6 -2 10 -4 10 -3 0
-8 -4 -11 -10z"/>
<path d="M1175 3250 c-3 -5 -1 -10 4 -10 6 0 11 5 11 10 0 6 -2 10 -4 10 -3 0
-8 -4 -11 -10z"/>
<path d="M663 3233 c-4 -10 -14 -23 -22 -30 -9 -7 -12 -13 -7 -13 5 0 2 -8 -7
-18 -9 -9 -18 -30 -21 -46 -3 -16 -13 -37 -22 -47 -9 -11 -14 -19 -10 -19 4 0
-3 -10 -15 -22 -22 -24 -45 -76 -41 -92 2 -6 5 -33 7 -60 6 -80 15 -169 22
-196 3 -14 6 -35 7 -47 1 -12 7 -28 12 -35 6 -7 9 -26 8 -43 -2 -16 2 -32 7
-36 6 -3 11 -28 11 -54 0 -27 3 -43 7 -36 5 8 10 2 15 -19 3 -18 3 -36 0 -42
-3 -5 -7 -24 -9 -41 -2 -18 -1 -24 1 -14 9 30 20 18 16 -18 -3 -21 -10 -35
-18 -35 -8 0 -14 -10 -14 -23 0 -13 -5 -28 -11 -34 -13 -13 -5 -43 12 -43 8 0
8 4 -1 15 -12 14 -6 35 10 35 13 0 29 -56 20 -70 -4 -7 -5 -24 0 -39 4 -14 6
-42 4 -61 -8 -95 -5 -141 14 -217 6 -21 10 -47 11 -58 3 -81 7 -110 16 -112
12 -4 13 63 2 152 -10 82 -11 254 -2 297 5 21 4 28 -4 24 -6 -4 -11 -2 -11 3
0 6 6 11 14 11 8 0 15 8 15 18 1 9 3 35 6 57 5 39 5 39 -8 12 -7 -15 -17 -24
-21 -20 -5 5 -6 -1 -2 -12 3 -11 1 -27 -4 -35 -7 -11 -10 -5 -11 25 0 22 -3
34 -6 27 -2 -6 -9 -10 -14 -7 -5 4 -4 14 1 25 6 11 14 28 19 39 6 12 6 23 -2
31 -9 10 -9 11 1 5 11 -6 12 -3 5 11 -6 11 -9 43 -9 73 1 36 -3 55 -12 59 -11
4 -11 6 0 14 10 7 10 11 1 15 -7 2 -13 18 -13 34 0 20 -4 28 -11 23 -8 -4 -9
1 -4 15 4 12 2 27 -3 34 -15 19 -31 116 -35 222 -1 34 -6 49 -14 48 -16 -4
-16 -1 -3 31 5 15 6 28 0 31 -11 7 14 69 46 110 13 18 24 37 24 44 0 8 8 10
23 6 14 -4 17 -3 9 3 -18 12 -23 51 -9 69 7 8 23 28 37 43 21 22 23 29 13 39
-11 9 -15 8 -20 -6z"/>
<path d="M1614 3235 c-10 -8 -14 -15 -8 -15 6 0 17 7 24 15 16 19 9 19 -16 0z"/>
<path d="M2150 3229 c0 -5 5 -7 10 -4 6 3 10 8 10 11 0 2 -4 4 -10 4 -5 0 -10
-5 -10 -11z"/>
<path d="M815 3220 c-3 -6 1 -7 9 -4 18 7 21 14 7 14 -6 0 -13 -4 -16 -10z"/>
<path d="M1067 3204 c2 -7 11 -10 19 -7 19 7 18 10 -5 16 -13 3 -18 1 -14 -9z"/>
<path d="M1116 3204 c-5 -13 -3 -14 6 -7 7 6 20 13 28 16 10 4 8 6 -6 6 -12 1
-25 -6 -28 -15z"/>
<path d="M1307 3199 c-9 -5 -23 -7 -30 -3 -9 5 -9 4 -1 -5 9 -10 18 -10 40 3
16 8 25 15 19 15 -5 0 -18 -4 -28 -10z"/>
<path d="M1688 3203 c7 -3 16 -2 19 1 4 3 -2 6 -13 5 -11 0 -14 -3 -6 -6z"/>
<path d="M1041 3184 c0 -11 3 -14 6 -6 3 7 2 16 -1 19 -3 4 -6 -2 -5 -13z"/>
<path d="M1180 3196 c0 -2 7 -7 16 -10 8 -3 12 -2 9 4 -6 10 -25 14 -25 6z"/>
<path d="M1805 3190 c3 -5 8 -10 11 -10 2 0 4 5 4 10 0 6 -5 10 -11 10 -5 0
-7 -4 -4 -10z"/>
<path d="M1130 3186 c0 -9 30 -14 35 -6 4 6 -3 10 -14 10 -12 0 -21 -2 -21 -4z"/>
<path d="M1502 3164 c-7 -8 -8 -14 -3 -14 10 0 25 19 20 25 -2 1 -10 -3 -17
-11z"/>
<path d="M1701 3169 c18 -11 52 -11 45 0 -3 5 -17 9 -32 9 -18 0 -22 -3 -13
-9z"/>
<path d="M1560 3149 c-22 -18 -22 -19 -3 -10 12 6 25 16 28 21 9 15 3 12 -25
-11z"/>
<path d="M1658 3163 c7 -3 16 -2 19 1 4 3 -2 6 -13 5 -11 0 -14 -3 -6 -6z"/>
<path d="M1029 3143 c-13 -17 -13 -17 6 -3 11 8 22 16 24 17 2 2 0 3 -6 3 -6
0 -17 -8 -24 -17z"/>
<path d="M1130 3150 c-12 -7 -12 -10 -1 -10 8 0 11 -6 7 -16 -3 -8 -2 -12 3
-9 7 4 13 47 6 45 0 0 -7 -5 -15 -10z"/>
<path d="M1180 3150 c-9 -6 -10 -10 -3 -10 6 0 15 5 18 10 8 12 4 12 -15 0z"/>
<path d="M1260 3149 c0 -5 5 -7 10 -4 6 3 10 8 10 11 0 2 -4 4 -10 4 -5 0 -10
-5 -10 -11z"/>
<path d="M1345 3150 c-3 -5 -1 -10 4 -10 6 0 11 5 11 10 0 6 -2 10 -4 10 -3 0
-8 -4 -11 -10z"/>
<path d="M1206 3135 c-3 -8 -1 -15 4 -15 6 0 10 7 10 15 0 8 -2 15 -4 15 -2 0
-6 -7 -10 -15z"/>
<path d="M1090 3129 c0 -5 5 -7 10 -4 6 3 10 8 10 11 0 2 -4 4 -10 4 -5 0 -10
-5 -10 -11z"/>
<path d="M1026 3095 c-9 -26 -7 -32 5 -12 6 10 9 21 6 23 -2 3 -7 -2 -11 -11z"/>
<path d="M1342 3084 c-7 -8 -8 -14 -3 -14 10 0 25 19 20 25 -2 1 -10 -3 -17
-11z"/>
<path d="M1408 3093 c7 -3 16 -2 19 1 4 3 -2 6 -13 5 -11 0 -14 -3 -6 -6z"/>
<path d="M1210 3081 c0 -5 -10 -13 -22 -19 -17 -8 -18 -11 -7 -11 9 -1 29 5
43 13 25 13 25 14 6 19 -11 3 -20 2 -20 -2z"/>
<path d="M1788 3068 c-10 -10 -14 -18 -9 -18 10 0 36 29 30 34 -2 1 -12 -6
-21 -16z"/>
<path d="M1835 3081 c-3 -5 -1 -12 5 -16 5 -3 10 1 10 9 0 18 -6 21 -15 7z"/>
<path d="M1300 3065 c0 -8 4 -15 10 -15 5 0 7 7 4 15 -4 8 -8 15 -10 15 -2 0
-4 -7 -4 -15z"/>
<path d="M1690 3069 c0 -5 5 -7 10 -4 6 3 10 8 10 11 0 2 -4 4 -10 4 -5 0 -10
-5 -10 -11z"/>
<path d="M1885 3069 c-4 -6 -5 -12 -2 -15 2 -3 7 2 10 11 7 17 1 20 -8 4z"/>
<path d="M1936 3045 c4 -8 10 -12 15 -9 11 6 2 24 -11 24 -5 0 -7 -7 -4 -15z"/>
<path d="M1447 3043 c-4 -3 -7 -11 -7 -17 0 -6 5 -5 12 2 6 6 9 14 7 17 -3 3
-9 2 -12 -2z"/>
<path d="M1505 3040 c-3 -5 -1 -10 4 -10 6 0 11 5 11 10 0 6 -2 10 -4 10 -3 0
-8 -4 -11 -10z"/>
<path d="M1807 3025 c-18 -25 -18 -25 5 -25 19 0 20 2 8 10 -13 8 -12 10 3 10
10 0 16 4 12 9 -3 5 5 12 17 14 22 4 22 4 -2 5 -16 1 -32 -8 -43 -23z"/>
<path d="M1663 3025 c-3 -9 -3 -18 -1 -21 3 -3 8 4 11 16 6 23 -1 27 -10 5z"/>
<path d="M1730 3029 c0 -5 -4 -7 -10 -4 -5 3 -10 1 -10 -4 0 -17 27 -13 34 4
3 8 1 15 -4 15 -6 0 -10 -5 -10 -11z"/>
<path d="M1899 3031 c10 -6 12 -20 8 -46 -6 -34 -5 -36 8 -19 10 14 14 15 15
5 0 -8 2 -12 5 -9 9 9 -25 78 -38 78 -8 0 -8 -3 2 -9z"/>
<path d="M1255 3021 c3 -5 -1 -12 -7 -14 -8 -4 -7 -6 4 -6 23 -1 32 15 12 23
-8 3 -13 2 -9 -3z"/>
<path d="M1578 3023 c7 -3 16 -2 19 1 4 3 -2 6 -13 5 -11 0 -14 -3 -6 -6z"/>
<path d="M1866 3015 c-3 -8 -1 -15 4 -15 6 0 10 7 10 15 0 8 -2 15 -4 15 -2 0
-6 -7 -10 -15z"/>
<path d="M1478 3013 c7 -3 16 -2 19 1 4 3 -2 6 -13 5 -11 0 -14 -3 -6 -6z"/>
<path d="M1606 3004 c-11 -8 -16 -14 -12 -14 5 0 3 -6 -3 -13 -6 -8 -8 -17 -4
-20 3 -4 15 7 25 24 22 37 20 43 -6 23z"/>
<path d="M1750 3005 c-7 -9 -11 -18 -8 -20 3 -3 11 1 18 10 7 9 11 18 8 20 -3
3 -11 -1 -18 -10z"/>
<path d="M1166 2978 c-14 -18 -23 -35 -20 -38 3 -2 10 3 15 13 6 9 15 14 21
11 7 -5 9 -2 5 8 -3 9 0 21 6 27 6 6 8 11 5 11 -4 0 -18 -14 -32 -32z"/>
<path d="M1540 3000 c-8 -5 -11 -12 -8 -16 4 -3 14 1 23 10 18 17 9 21 -15 6z"/>
<path d="M1961 2994 c0 -11 3 -14 6 -6 3 7 2 16 -1 19 -3 4 -6 -2 -5 -13z"/>
<path d="M1127 2975 c-15 -14 -24 -25 -19 -25 5 0 19 11 32 25 30 32 23 32
-13 0z"/>
<path d="M1210 2979 c0 -11 4 -18 10 -14 5 3 7 12 3 20 -7 21 -13 19 -13 -6z"/>
<path d="M1642 2980 c0 -14 2 -19 5 -12 2 6 2 18 0 25 -3 6 -5 1 -5 -13z"/>
<path d="M1262 2969 c-18 -12 -31 -23 -29 -26 3 -2 22 7 42 22 45 30 34 34
-13 4z"/>
<path d="M1430 2981 c0 -6 6 -11 13 -11 6 0 4 -5 -5 -11 -21 -12 -24 -31 -4
-23 22 8 27 31 10 44 -10 9 -14 9 -14 1z"/>
<path d="M1732 2950 c-23 -23 -42 -44 -43 -48 0 -4 -2 -15 -4 -25 -3 -17 -1
-17 18 -4 11 7 23 20 25 28 3 11 2 11 -7 -1 -5 -8 -14 -11 -18 -6 -4 4 6 20
22 34 31 28 61 62 53 62 -2 0 -23 -18 -46 -40z"/>
<path d="M1819 2988 c-7 -21 -8 -58 -2 -61 5 -3 9 10 10 29 1 19 0 34 -3 34
-2 0 -4 -1 -5 -2z"/>
<path d="M2045 2966 c-11 -13 -35 -31 -53 -40 -32 -16 -33 -16 -42 6 -8 21 -9
21 -9 3 0 -11 6 -29 14 -39 13 -17 15 -18 15 -3 0 9 6 17 13 17 16 0 79 45 90
65 12 23 -5 17 -28 -9z"/>
<path d="M1370 2970 c0 -5 5 -10 10 -10 6 0 10 5 10 10 0 6 -4 10 -10 10 -5 0
-10 -4 -10 -10z"/>
<path d="M1480 2965 c-7 -8 -8 -15 -2 -15 5 0 15 7 22 15 7 8 8 15 2 15 -5 0
-15 -7 -22 -15z"/>
<path d="M1405 2959 c-4 -6 -5 -12 -2 -15 2 -3 7 2 10 11 7 17 1 20 -8 4z"/>
<path d="M1600 2926 c-11 -26 -20 -51 -20 -55 0 -16 -78 -91 -94 -91 -9 0 -14
5 -11 10 3 6 1 10 -4 10 -6 0 -11 6 -11 14 0 24 -18 28 -30 7 -7 -14 -7 -22 2
-27 7 -4 8 -3 4 4 -4 7 -2 12 4 12 6 0 15 -11 21 -24 10 -21 15 -23 37 -15 15
6 38 23 52 40 15 16 38 30 51 30 18 1 19 3 6 6 -19 5 -18 16 9 82 8 19 12 36
9 39 -2 3 -14 -16 -25 -42z"/>
<path d="M1860 2963 c0 -7 9 -22 20 -33 17 -17 17 -21 5 -34 -8 -8 -15 -19
-15 -25 0 -6 -3 -11 -7 -11 -5 0 -17 -13 -28 -28 -12 -17 -13 -22 -4 -15 9 7
19 10 22 6 4 -3 7 -1 7 5 0 7 14 31 30 54 29 40 30 43 11 49 -10 4 -24 16 -30
26 -6 10 -11 12 -11 6z"/>
<path d="M1965 2960 c3 -5 18 -10 32 -10 32 0 28 5 -10 14 -19 4 -26 3 -22 -4z"/>
<path d="M1557 2945 c-4 -8 -11 -15 -17 -15 -6 0 -8 5 -5 10 10 16 -11 12 -25
-5 -7 -8 -16 -13 -20 -10 -5 3 -11 1 -15 -5 -3 -5 3 -10 14 -10 12 0 21 5 21
10 0 6 4 10 10 10 5 0 7 -7 4 -15 -4 -8 -12 -15 -18 -15 -7 0 -13 -7 -13 -16
0 -10 15 -1 41 25 22 22 37 43 34 46 -3 3 -8 -1 -11 -10z"/>
<path d="M1246 2916 c-20 -18 -36 -39 -36 -45 0 -7 -4 -10 -10 -6 -5 3 -6 13
-3 23 6 14 4 15 -9 5 -8 -7 -18 -10 -21 -6 -4 3 -7 -1 -7 -10 0 -8 -10 -19
-22 -23 -13 -3 -31 -15 -41 -25 -9 -10 -24 -16 -32 -13 -8 4 -17 -1 -21 -10
-3 -9 -12 -16 -19 -16 -8 0 -17 -5 -21 -12 -4 -7 -3 -8 4 -4 8 5 10 2 6 -8 -3
-9 -11 -13 -17 -9 -6 3 -7 1 -3 -5 12 -19 25 -14 41 18 9 17 20 30 26 30 5 0
2 -14 -6 -31 -9 -17 -14 -33 -11 -37 7 -7 7 -6 29 41 9 20 23 38 32 38 35 3
58 16 50 29 -3 4 2 14 11 21 13 10 17 10 24 -1 7 -12 14 -10 37 11 15 15 43
35 61 45 31 18 42 34 22 34 -5 0 -10 -4 -10 -10 0 -5 -5 -10 -11 -10 -5 0 -7
5 -4 10 12 19 -4 10 -39 -24z m-99 -82 c-3 -3 -12 -4 -19 -1 -8 3 -5 6 6 6 11
1 17 -2 13 -5z"/>
<path d="M1171 2933 c-1 -17 11 -22 34 -12 19 9 19 9 -2 5 -12 -2 -24 1 -27 8
-3 8 -5 8 -5 -1z"/>
<path d="M1544 2895 c-22 -25 -37 -45 -34 -45 9 0 83 80 78 85 -2 2 -22 -16
-44 -40z"/>
<path d="M2171 2933 c-1 -6 -8 -19 -17 -27 -8 -9 -11 -16 -6 -16 15 0 34 28
29 42 -4 9 -6 9 -6 1z"/>
<path d="M1350 2921 c0 -5 5 -13 10 -16 7 -5 8 -11 1 -19 -6 -7 -6 -17 -1 -26
8 -12 10 -9 11 10 1 17 3 19 6 8 2 -10 9 -18 14 -18 5 0 3 13 -6 29 -16 32
-35 49 -35 32z"/>
<path d="M1385 2920 c3 -5 8 -10 11 -10 2 0 4 5 4 10 0 6 -5 10 -11 10 -5 0
-7 -4 -4 -10z"/>
<path d="M1447 2916 c-4 -9 -11 -15 -15 -12 -5 3 -9 -1 -9 -9 0 -8 4 -15 7
-15 13 0 32 29 28 42 -3 8 -7 6 -11 -6z"/>
<path d="M1851 2914 c0 -11 3 -14 6 -6 3 7 2 16 -1 19 -3 4 -6 -2 -5 -13z"/>
<path d="M821 2904 c0 -11 3 -14 6 -6 3 7 2 16 -1 19 -3 4 -6 -2 -5 -13z"/>
<path d="M1303 2903 c4 -3 1 -13 -6 -22 -11 -14 -10 -14 6 -2 20 15 22 31 5
31 -6 0 -8 -3 -5 -7z"/>
<path d="M1996 2877 c3 -10 9 -15 12 -12 3 3 0 11 -7 18 -10 9 -11 8 -5 -6z"/>
<path d="M2467 2838 c3 -55 2 -115 -2 -153 -2 -16 -4 -43 -4 -58 -1 -17 -5
-26 -11 -22 -6 4 -10 3 -9 -2 6 -22 -33 -157 -43 -148 -2 3 -5 -2 -5 -10 0 -8
9 -15 19 -15 10 0 18 7 18 15 0 8 4 15 9 15 5 0 7 8 4 19 -3 10 0 22 6 25 5 4
8 13 5 21 -3 8 4 35 16 59 16 35 20 58 17 100 -3 31 -1 54 3 51 4 -3 6 10 5
28 -2 17 -3 51 -4 75 -1 26 -6 42 -13 42 -9 0 -12 -14 -11 -42z"/>
<path d="M1430 2861 c0 -6 -8 -11 -17 -12 -10 0 -13 -3 -6 -5 18 -8 49 11 34
20 -6 4 -11 2 -11 -3z"/>
<path d="M1981 2853 c7 -12 15 -20 18 -17 3 2 -3 12 -13 22 -17 16 -18 16 -5
-5z"/>
<path d="M2157 2859 c7 -7 15 -10 18 -7 3 3 -2 9 -12 12 -14 6 -15 5 -6 -5z"/>
<path d="M1637 2854 c-3 -4 0 -13 8 -20 18 -18 31 -18 16 0 -9 11 -9 15 1 19
9 4 8 6 -3 6 -9 1 -18 -2 -22 -5z"/>
<path d="M2065 2851 c6 -11 45 -10 45 1 0 4 -12 8 -26 8 -14 0 -23 -4 -19 -9z"/>
<path d="M935 2840 c-16 -7 -17 -9 -3 -9 9 -1 20 4 23 9 7 11 7 11 -20 0z"/>
<path d="M1355 2830 c-16 -9 -36 -15 -43 -12 -8 3 -10 -1 -6 -12 6 -15 8 -15
31 -1 29 19 36 15 36 -21 0 -27 0 -27 11 -5 10 18 15 20 23 9 18 -23 22 -47
10 -52 -7 -2 -5 -5 5 -5 28 -2 29 16 3 47 -14 16 -28 38 -32 49 -8 19 -9 19
-38 3z"/>
<path d="M2127 2839 c7 -7 15 -10 18 -7 3 3 -2 9 -12 12 -14 6 -15 5 -6 -5z"/>
<path d="M1255 2830 c-4 -7 -16 -10 -26 -7 -10 3 -22 1 -25 -4 -3 -6 13 -9 40
-7 25 2 45 7 43 12 -5 15 -24 18 -32 6z"/>
<path d="M1740 2836 c0 -2 7 -9 15 -16 13 -11 14 -10 9 4 -5 14 -24 23 -24 12z"/>
<path d="M1778 2833 c7 -3 16 -2 19 1 4 3 -2 6 -13 5 -11 0 -14 -3 -6 -6z"/>
<path d="M846 2821 c-3 -5 10 -11 29 -13 37 -4 36 5 -2 16 -12 4 -24 3 -27 -3z"/>
<path d="M2005 2820 c-3 -5 -1 -10 4 -10 6 0 11 5 11 10 0 6 -2 10 -4 10 -3 0
-8 -4 -11 -10z"/>
<path d="M930 2810 c-8 -5 -11 -12 -8 -16 4 -3 14 1 23 10 18 17 9 21 -15 6z"/>
<path d="M975 2809 c-11 -17 1 -21 15 -4 8 9 8 15 2 15 -6 0 -14 -5 -17 -11z"/>
<path d="M1926 2803 c-4 -9 -4 -18 -1 -21 3 -3 5 0 5 7 0 8 8 11 20 8 25 -6
26 -1 1 12 -15 8 -20 7 -25 -6z"/>
<path d="M1172 2797 c-8 -9 -8 -17 0 -27 8 -13 9 -12 5 1 -3 9 0 22 6 28 6 6
8 11 5 11 -3 0 -10 -6 -16 -13z"/>
<path d="M1680 2801 c0 -12 23 -19 70 -22 38 -3 60 5 60 24 0 8 -3 8 -12 -1
-15 -15 -72 -16 -99 -2 -12 7 -19 7 -19 1z"/>
<path d="M2171 2802 c-1 -9 -12 -11 -38 -8 l-38 5 38 -10 c41 -12 52 -8 44 13
-4 10 -6 10 -6 0z"/>
<path d="M665 2780 c-10 -11 -16 -22 -13 -25 3 -3 13 6 22 20 20 30 16 32 -9
5z"/>
<path d="M2196 2791 c-4 -7 -5 -15 -2 -18 9 -9 19 4 14 18 -4 11 -6 11 -12 0z"/>
<path d="M1116 2773 c-6 -14 -5 -15 5 -6 7 7 10 15 7 18 -3 3 -9 -2 -12 -12z"/>
<path d="M1204 2759 c-3 -6 -19 -9 -33 -7 -28 4 -51 -11 -51 -33 0 -8 6 -5 13
5 7 9 17 16 22 15 6 -2 24 1 42 5 19 4 40 3 53 -4 12 -6 24 -10 26 -8 2 3 -12
12 -31 21 -23 11 -36 13 -41 6z"/>
<path d="M1890 2761 c0 -5 -10 -11 -22 -13 -21 -3 -21 -4 5 -9 22 -5 27 -3 27
12 0 11 -2 19 -5 19 -3 0 -5 -4 -5 -9z"/>
<path d="M2180 2750 c0 -5 5 -10 11 -10 5 0 7 5 4 10 -3 6 -8 10 -11 10 -2 0
-4 -4 -4 -10z"/>
<path d="M2236 2732 c0 -14 5 -27 11 -29 6 -2 8 7 5 22 -6 34 -18 40 -16 7z"/>
<path d="M587 2736 c-4 -10 -3 -15 3 -11 6 3 10 1 10 -6 0 -7 3 -10 6 -6 3 3
2 13 -4 22 -8 16 -9 16 -15 1z"/>
<path d="M1370 2733 c0 -13 5 -23 10 -23 13 0 13 11 0 30 -8 12 -10 11 -10 -7z"/>
<path d="M1637 2739 c7 -7 15 -10 18 -7 3 3 -2 9 -12 12 -14 6 -15 5 -6 -5z"/>
<path d="M745 2730 c-3 -6 1 -7 9 -4 18 7 21 14 7 14 -6 0 -13 -4 -16 -10z"/>
<path d="M1300 2730 c-13 -8 -12 -10 3 -10 9 0 17 5 17 10 0 12 -1 12 -20 0z"/>
<path d="M758 2688 c-32 -37 -34 -44 -12 -52 15 -6 51 20 41 30 -2 3 -12 -2
-20 -11 -9 -8 -18 -12 -21 -7 -2 4 6 18 20 31 13 13 24 27 24 32 0 13 -3 12
-32 -23z"/>
<path d="M1040 2710 c0 -5 5 -10 10 -10 6 0 10 5 10 10 0 6 -4 10 -10 10 -5 0
-10 -4 -10 -10z"/>
<path d="M2140 2705 c0 -5 5 -17 10 -25 5 -8 10 -10 10 -5 0 6 -5 17 -10 25
-5 8 -10 11 -10 5z"/>
<path d="M581 2684 c0 -11 3 -14 6 -6 3 7 2 16 -1 19 -3 4 -6 -2 -5 -13z"/>
<path d="M706 2683 c-6 -14 -5 -15 5 -6 7 7 10 15 7 18 -3 3 -9 -2 -12 -12z"/>
<path d="M1107 2693 c-4 -3 -7 -11 -7 -17 0 -6 5 -5 12 2 6 6 9 14 7 17 -3 3
-9 2 -12 -2z"/>
<path d="M1550 2690 c0 -5 5 -10 10 -10 6 0 10 5 10 10 0 6 -4 10 -10 10 -5 0
-10 -4 -10 -10z"/>
<path d="M1740 2681 c0 -6 4 -13 10 -16 6 -3 7 1 4 9 -7 18 -14 21 -14 7z"/>
<path d="M2240 2681 c0 -5 5 -13 10 -16 6 -3 10 -2 10 4 0 5 -4 13 -10 16 -5
3 -10 2 -10 -4z"/>
<path d="M1392 2655 c0 -16 2 -22 5 -12 2 9 2 23 0 30 -3 6 -5 -1 -5 -18z"/>
<path d="M1820 2669 c0 -5 5 -7 10 -4 6 3 10 8 10 11 0 2 -4 4 -10 4 -5 0 -10
-5 -10 -11z"/>
<path d="M2223 2653 c8 -16 13 -43 12 -61 -2 -23 3 -36 18 -47 27 -19 35 -11
14 13 -10 10 -14 22 -10 25 3 4 1 7 -5 7 -6 0 -9 6 -6 14 5 13 -21 76 -32 76
-2 0 2 -12 9 -27z"/>
<path d="M1995 2660 c3 -5 8 -10 11 -10 2 0 4 5 4 10 0 6 -5 10 -11 10 -5 0
-7 -4 -4 -10z"/>
<path d="M2381 2660 c0 -8 4 -24 9 -35 5 -13 9 -14 9 -5 0 8 -4 24 -9 35 -5
13 -9 14 -9 5z"/>
<path d="M1080 2650 c0 -5 5 -10 11 -10 5 0 7 5 4 10 -3 6 -8 10 -11 10 -2 0
-4 -4 -4 -10z"/>
<path d="M2531 2644 c0 -11 3 -14 6 -6 3 7 2 16 -1 19 -3 4 -6 -2 -5 -13z"/>
<path d="M1555 2640 c3 -5 8 -10 11 -10 2 0 4 5 4 10 0 6 -5 10 -11 10 -5 0
-7 -4 -4 -10z"/>
<path d="M615 2620 c-3 -5 -1 -10 4 -10 6 0 11 5 11 10 0 6 -2 10 -4 10 -3 0
-8 -4 -11 -10z"/>
<path d="M1404 2601 c0 -11 6 -23 13 -25 7 -3 13 -2 13 2 0 5 -6 16 -13 26
-12 16 -13 16 -13 -3z"/>
<path d="M1570 2580 c-8 -5 -10 -10 -5 -10 6 0 17 5 25 10 8 5 11 10 5 10 -5
0 -17 -5 -25 -10z"/>
<path d="M1595 2549 c-11 -16 -1 -19 13 -3 7 8 8 14 3 14 -5 0 -13 -5 -16 -11z"/>
<path d="M726 2514 c-18 -17 -22 -64 -6 -64 6 0 11 9 11 20 2 28 3 33 12 48
11 17 2 15 -17 -4z"/>
<path d="M1686 2523 c5 -5 12 -12 16 -18 4 -6 8 -2 8 8 0 9 -7 17 -17 17 -9 0
-12 -3 -7 -7z"/>
<path d="M2240 2517 c0 -33 18 -56 40 -50 16 4 18 8 9 19 -7 8 -14 12 -17 9
-3 -3 -12 5 -19 17 -10 19 -12 20 -13 5z"/>
<path d="M1858 2513 c7 -3 16 -2 19 1 4 3 -2 6 -13 5 -11 0 -14 -3 -6 -6z"/>
<path d="M1947 2469 c7 -7 15 -10 18 -7 3 3 -2 9 -12 12 -14 6 -15 5 -6 -5z"/>
<path d="M2272 2430 c1 -17 5 -33 10 -36 4 -3 8 -10 8 -15 0 -6 -5 -7 -11 -3
-9 5 -10 -6 -6 -42 25 -195 38 -378 32 -448 -6 -76 -6 -79 12 -66 15 12 15 11
-2 -9 -14 -16 -21 -40 -23 -79 -3 -78 -4 -82 -14 -82 -5 0 -6 -4 -3 -10 9 -15
25 -12 25 5 0 8 4 15 9 15 14 0 20 64 7 73 -8 5 -7 9 2 16 15 9 18 35 28 254
4 75 11 137 16 137 17 0 7 32 -17 58 -21 22 -25 23 -19 7 4 -11 13 -25 21 -31
11 -10 11 -13 -2 -18 -9 -3 -14 -10 -11 -14 3 -5 1 -30 -3 -58 l-9 -49 -2 40
c-1 22 -4 49 -6 60 -3 11 -6 45 -7 77 -1 31 -5 54 -8 52 -3 -2 -5 33 -4 77 1
44 -2 82 -6 85 -4 2 -6 11 -2 19 3 8 0 15 -5 15 -6 0 -10 -14 -10 -30z"/>
<path d="M685 2440 c-6 -9 1 -14 18 -11 11 2 8 -14 -5 -27 -17 -17 -18 -72 -2
-72 6 0 14 12 17 26 3 18 1 24 -9 20 -8 -3 -14 -1 -14 4 0 6 6 10 14 10 12 0
32 30 24 34 -2 1 -10 7 -20 14 -11 9 -18 10 -23 2z"/>
<path d="M970 2440 c-10 -6 -11 -10 -2 -10 6 0 12 -7 12 -15 0 -9 6 -12 15 -9
21 8 19 24 -2 24 -15 0 -16 2 -3 10 8 5 11 10 5 10 -5 0 -17 -5 -25 -10z"/>
<path d="M942 2411 c-11 -6 -10 -10 3 -15 9 -3 15 -12 12 -20 -4 -10 3 -12 25
-10 38 5 59 -7 32 -17 -15 -6 -13 -8 11 -8 17 -1 43 8 58 18 l29 19 -66 0
c-63 0 -102 14 -90 33 6 11 3 11 -14 0z m128 -51 c-8 -5 -19 -10 -25 -10 -5 0
-3 5 5 10 8 5 20 10 25 10 6 0 3 -5 -5 -10z"/>
<path d="M2390 2400 c-6 -12 -8 -30 -5 -40 4 -12 2 -20 -4 -20 -6 0 -12 17
-13 38 -1 33 -2 32 -7 -13 -3 -27 -2 -53 3 -56 4 -4 4 -9 -2 -13 -14 -8 -7
-86 10 -102 12 -12 17 -12 33 1 15 11 16 14 4 9 -10 -3 -20 0 -25 7 -11 19 -7
113 5 117 6 2 11 19 11 38 0 19 5 34 10 34 6 0 10 5 10 10 0 17 -19 11 -30
-10z"/>
<path d="M1985 2400 c-3 -5 -18 -8 -33 -6 -15 2 -21 1 -14 -1 7 -3 10 -8 8
-12 -3 -4 9 -8 27 -8 18 0 26 2 19 5 -6 2 -10 8 -6 13 8 13 44 11 44 -3 0 -6
3 -9 6 -5 3 3 27 -8 52 -24 51 -32 64 -36 56 -15 -3 8 -12 12 -20 9 -8 -3 -14
-1 -14 4 0 11 -81 53 -103 53 -9 0 -19 -4 -22 -10z"/>
<path d="M1038 2393 c7 -3 16 -2 19 1 4 3 -2 6 -13 5 -11 0 -14 -3 -6 -6z"/>
<path d="M865 2370 c-7 -12 12 -12 40 0 18 8 17 9 -7 9 -15 1 -30 -3 -33 -9z"/>
<path d="M1854 2362 c4 -7 -4 -9 -29 -5 -31 5 -36 2 -52 -26 -10 -17 -22 -31
-26 -31 -13 0 -37 27 -30 34 4 3 1 6 -5 6 -17 0 -15 -16 4 -34 22 -23 35 -20
68 14 18 20 32 27 40 22 15 -13 57 -22 51 -12 -3 5 7 13 22 18 24 9 25 11 6
11 -12 1 -29 4 -39 8 -11 4 -15 3 -10 -5z"/>
<path d="M1990 2355 c-14 -8 -35 -14 -47 -15 -12 0 -34 -11 -48 -24 -26 -24
-55 -25 -55 -2 0 6 -6 3 -13 -6 -7 -9 -25 -20 -40 -23 -15 -4 -24 -11 -21 -16
3 -5 13 -5 23 1 18 9 72 19 132 24 15 2 41 8 58 16 24 9 34 10 45 1 10 -9 15
-9 18 -1 2 8 11 8 31 1 17 -7 35 -7 49 -1 21 8 22 9 3 11 -11 1 -26 1 -34 0
-7 -2 -10 2 -7 8 12 19 -115 -1 -142 -22 -9 -7 -16 -7 -24 1 -8 8 0 13 26 17
20 4 39 11 42 16 3 5 8 7 12 5 4 -2 13 2 20 10 16 18 4 17 -28 -1z"/>
<path d="M1109 2351 c11 -7 11 -10 0 -15 -8 -3 -4 -4 8 -2 13 2 29 -4 40 -16
11 -12 26 -18 40 -15 12 2 20 1 18 -3 -3 -4 6 -10 20 -12 18 -4 22 -2 16 6 -6
8 -1 11 17 11 15 1 30 -4 34 -9 4 -6 10 -7 14 -3 4 4 -1 14 -12 21 -12 9 -21
11 -25 4 -4 -6 -9 -7 -13 0 -3 5 -18 7 -33 5 -22 -4 -25 -2 -13 6 12 9 10 11
-13 11 -16 0 -26 -4 -22 -10 10 -17 -4 -11 -25 10 -11 11 -30 20 -42 20 -17 0
-19 -3 -9 -9z"/>
<path d="M1746 2345 c-11 -8 -16 -18 -12 -22 3 -4 16 3 29 15 24 25 12 29 -17
7z"/>
<path d="M863 2338 c-48 -13 -40 -22 13 -14 26 3 63 2 83 -3 20 -5 63 -12 96
-16 33 -3 68 -8 78 -11 31 -10 18 5 -19 21 -20 8 -46 12 -59 9 -12 -3 -41 0
-64 6 -61 16 -92 18 -128 8z"/>
<path d="M560 2320 c0 -5 -8 -10 -18 -10 -24 0 -62 -36 -61 -58 0 -12 3 -11 9
6 12 27 61 53 68 34 2 -6 11 -12 20 -12 16 1 16 1 0 11 -10 5 -15 16 -12 24 4
8 3 15 0 15 -3 0 -6 -4 -6 -10z"/>
<path d="M1800 2320 c-9 -6 -10 -10 -3 -10 6 0 15 5 18 10 8 12 4 12 -15 0z"/>
<path d="M2177 2319 c7 -7 15 -10 18 -7 3 3 -2 9 -12 12 -14 6 -15 5 -6 -5z"/>
<path d="M674 2307 c3 -10 6 -23 6 -28 0 -5 4 -9 9 -9 13 0 7 28 -9 43 -10 10
-12 9 -6 -6z"/>
<path d="M1642 2288 c-10 -30 -10 -31 3 -14 13 17 21 46 12 46 -1 0 -8 -15
-15 -32z"/>
<path d="M815 2300 c-4 -7 3 -8 22 -4 38 9 42 14 10 14 -14 0 -29 -5 -32 -10z"/>
<path d="M2125 2290 c-13 -5 -14 -9 -5 -9 8 0 24 4 35 9 13 5 14 9 5 9 -8 0
-24 -4 -35 -9z"/>
<path d="M2310 2291 c0 -6 4 -12 8 -15 5 -3 9 1 9 9 0 8 -4 15 -9 15 -4 0 -8
-4 -8 -9z"/>
<path d="M650 2275 c-7 -9 -8 -15 -2 -15 5 0 12 7 16 15 3 8 4 15 2 15 -2 0
-9 -7 -16 -15z"/>
<path d="M847 2279 c7 -7 15 -10 18 -7 3 3 -2 9 -12 12 -14 6 -15 5 -6 -5z"/>
<path d="M1178 2278 c5 -5 16 -8 23 -6 8 3 3 7 -10 11 -17 4 -21 3 -13 -5z"/>
<path d="M1700 2280 c-9 -6 -10 -10 -3 -10 6 0 15 5 18 10 8 12 4 12 -15 0z"/>
<path d="M2038 2283 c7 -3 16 -2 19 1 4 3 -2 6 -13 5 -11 0 -14 -3 -6 -6z"/>
<path d="M2165 2270 c3 -5 8 -10 11 -10 2 0 4 5 4 10 0 6 -5 10 -11 10 -5 0
-7 -4 -4 -10z"/>
<path d="M980 2258 c-41 -11 -56 -23 -41 -32 6 -4 11 -3 11 2 0 15 48 24 118
23 34 0 62 3 62 7 0 12 -110 12 -150 0z"/>
<path d="M1153 2253 c9 -2 14 -9 11 -15 -4 -7 -2 -8 4 -4 7 4 33 -5 59 -21 26
-15 43 -22 39 -15 -9 15 -101 62 -118 61 -7 -1 -5 -3 5 -6z"/>
<path d="M1248 2253 c7 -3 16 -2 19 1 4 3 -2 6 -13 5 -11 0 -14 -3 -6 -6z"/>
<path d="M1676 2245 c-24 -18 -21 -18 29 0 32 11 35 14 15 14 -14 0 -34 -6
-44 -14z"/>
<path d="M1326 2238 c3 -4 12 -8 20 -8 8 0 14 4 14 8 0 4 -9 8 -19 8 -11 0
-17 -4 -15 -8z"/>
<path d="M2430 2240 c-8 -5 -11 -12 -7 -17 5 -4 12 -2 16 5 11 18 56 -1 72
-29 26 -50 12 -177 -43 -394 -36 -142 -39 -147 -98 -182 -30 -18 -51 -33 -48
-33 18 0 66 28 96 55 32 30 34 35 72 210 6 28 21 89 32 138 27 118 19 196 -24
232 -32 27 -45 30 -68 15z"/>
<path d="M463 2125 c4 -123 23 -234 58 -342 18 -56 49 -103 49 -74 0 6 -4 11
-8 11 -12 0 -49 116 -62 195 -7 39 -15 77 -20 85 -4 9 -8 65 -9 125 -1 60 -4
112 -7 115 -3 2 -3 -49 -1 -115z"/>
<path d="M1809 2226 c-42 -15 -103 -56 -95 -64 3 -3 14 2 24 11 57 52 180 69
262 38 65 -25 75 -26 58 -7 -7 8 -15 14 -18 13 -3 0 -23 5 -45 11 -52 15 -140
15 -186 -2z"/>
<path d="M480 2219 c0 -6 6 -9 14 -6 8 3 22 -1 33 -8 21 -16 33 -19 33 -7 0
10 -45 32 -65 32 -8 0 -15 -5 -15 -11z"/>
<path d="M1605 2220 c-4 -6 -11 -7 -17 -4 -7 4 -8 2 -4 -5 6 -9 11 -9 22 0 14
11 18 19 10 19 -3 0 -8 -5 -11 -10z"/>
<path d="M421 2194 c0 -11 3 -14 6 -6 3 7 2 16 -1 19 -3 4 -6 -2 -5 -13z"/>
<path d="M1117 2192 c5 -14 3 -15 -8 -4 -34 31 -151 -7 -193 -65 -18 -25 -18
-25 3 -18 15 4 21 2 21 -8 0 -17 72 -38 90 -27 8 5 7 9 -5 14 -9 3 -22 3 -27
-1 -7 -4 -8 -1 -4 6 5 8 3 11 -5 10 -18 -3 -49 11 -49 22 0 8 91 59 105 59 3
0 2 -8 -3 -17 -6 -10 -6 -27 -2 -38 11 -28 47 -58 60 -50 6 4 17 1 25 -5 10
-8 27 -10 48 -5 17 3 53 9 79 11 38 4 47 2 51 -13 4 -15 5 -15 6 3 1 21 -37
63 -77 83 -13 7 -20 17 -16 24 4 7 4 9 0 5 -5 -4 -30 2 -57 12 -44 18 -48 18
-42 2z m-43 -44 c-3 -4 0 -8 7 -8 10 0 10 -3 1 -12 -10 -10 -15 -10 -22 2 -6
9 -6 16 0 18 5 2 6 11 3 20 -4 14 -3 14 5 2 6 -8 8 -18 6 -22z m46 -10 c0 -5
-4 -8 -10 -8 -5 0 -10 10 -10 23 0 18 2 19 10 7 5 -8 10 -18 10 -22z m36 -4
c-4 -12 -10 -14 -17 -7 -5 5 -7 17 -3 27 4 12 10 14 17 7 5 -5 7 -17 3 -27z
m59 9 c39 -31 32 -45 -35 -63 -48 -13 -62 -8 -31 12 14 9 21 23 21 45 0 18 2
33 6 33 3 0 20 -12 39 -27z m-120 -33 c-3 -5 -11 -10 -16 -10 -6 0 -7 5 -4 10
3 6 11 10 16 10 6 0 7 -4 4 -10z m195 -16 c0 -2 -9 -4 -21 -4 -11 0 -18 4 -14
10 5 8 35 3 35 -6z"/>
<path d="M1230 2186 c0 -2 8 -10 18 -17 15 -13 16 -12 3 4 -13 16 -21 21 -21
13z"/>
<path d="M1776 2151 c-45 -22 -85 -49 -92 -62 -18 -32 -17 -44 1 -29 9 8 28
10 52 6 96 -17 123 -18 123 -5 0 10 3 10 12 1 8 -8 16 -8 32 0 33 18 47 41 41
70 l-4 27 49 -30 c51 -31 63 -45 33 -35 -10 3 -35 -5 -56 -17 l-39 -24 44 0
c23 0 35 1 25 4 -14 4 -16 8 -6 19 13 15 34 20 25 5 -4 -5 3 -7 13 -4 10 3 30
0 42 -7 20 -9 21 -9 8 2 -9 7 -21 22 -27 34 -13 25 -95 70 -144 79 -33 6 -38
5 -39 -11 0 -18 -1 -18 -7 -2 -7 16 -15 14 -86 -21z m33 -3 c-4 -30 2 -49 21
-68 18 -18 19 -20 2 -20 -10 0 -34 8 -55 19 -20 10 -34 15 -31 10 3 -5 0 -9
-5 -9 -20 0 -11 29 11 41 13 7 29 18 36 26 17 16 23 17 21 1z m71 -13 c0 -8
-4 -15 -10 -15 -5 0 -10 7 -10 15 0 8 5 15 10 15 6 0 10 -7 10 -15z m37 8 c-4
-3 -2 -12 4 -20 9 -10 8 -13 0 -13 -7 0 -9 -4 -6 -10 3 -5 2 -10 -4 -10 -12 0
-24 37 -16 50 3 5 11 10 17 10 6 0 8 -3 5 -7z m-67 -23 c0 -5 -4 -10 -10 -10
-5 0 -10 5 -10 10 0 6 5 10 10 10 6 0 10 -4 10 -10z m-130 -30 c0 -5 -2 -10
-4 -10 -3 0 -8 5 -11 10 -3 6 -1 10 4 10 6 0 11 -4 11 -10z"/>
<path d="M2475 2182 c-11 -1 -31 -12 -45 -23 -21 -17 -22 -19 -3 -10 12 6 32
11 44 11 21 0 21 -3 16 -77 -7 -80 -27 -126 -28 -62 0 18 -4 52 -9 74 -9 43
-9 30 6 -156 5 -62 3 -81 -11 -102 -9 -15 -15 -32 -12 -39 7 -23 37 63 37 108
0 23 4 54 10 69 5 14 12 38 15 53 6 28 8 153 3 156 -2 1 -12 0 -23 -2z"/>
<path d="M534 2163 c-3 -10 -10 -27 -14 -38 -15 -35 -20 -155 -9 -206 6 -28
19 -58 29 -67 9 -9 20 -24 23 -32 4 -12 6 -11 6 3 1 9 6 17 11 17 6 0 10 8 10
17 0 15 -1 15 -13 -1 -13 -17 -15 -16 -35 16 -24 39 -28 105 -11 193 16 88 19
115 14 115 -3 0 -8 -8 -11 -17z"/>
<path d="M1325 2124 c20 -39 22 -51 12 -63 -10 -14 -10 -14 5 -3 12 10 14 20
8 42 -6 20 -5 30 3 34 8 3 7 5 -2 5 -8 1 -23 8 -33 17 -14 14 -13 7 7 -32z"/>
<path d="M1630 2141 c0 -6 4 -13 10 -16 6 -3 7 1 4 9 -7 18 -14 21 -14 7z"/>
<path d="M878 2133 c7 -3 16 -2 19 1 4 3 -2 6 -13 5 -11 0 -14 -3 -6 -6z"/>
<path d="M1665 2130 c-3 -5 -2 -10 4 -10 5 0 13 5 16 10 3 6 2 10 -4 10 -5 0
-13 -4 -16 -10z"/>
<path d="M2380 2125 c-7 -9 -11 -18 -8 -20 3 -3 11 1 18 10 7 9 11 18 8 20 -3
3 -11 -1 -18 -10z"/>
<path d="M2080 2110 c8 -5 20 -10 25 -10 6 0 3 5 -5 10 -8 5 -19 10 -25 10 -5
0 -3 -5 5 -10z"/>
<path d="M1643 2102 c-7 -4 -11 -15 -9 -24 4 -31 13 -30 18 2 3 16 4 30 4 30
-1 0 -6 -4 -13 -8z"/>
<path d="M756 2061 c-4 -7 -5 -15 -2 -18 9 -9 19 4 14 18 -4 11 -6 11 -12 0z"/>
<path d="M920 2055 c0 -8 4 -15 10 -15 5 0 7 7 4 15 -4 8 -8 15 -10 15 -2 0
-4 -7 -4 -15z"/>
<path d="M1026 2051 c-3 -5 0 -11 7 -14 8 -3 14 1 14 9 0 16 -13 19 -21 5z"/>
<path d="M1590 2050 c0 -5 5 -10 11 -10 5 0 7 5 4 10 -3 6 -8 10 -11 10 -2 0
-4 -4 -4 -10z"/>
<path d="M1060 2040 c0 -5 5 -10 11 -10 5 0 7 5 4 10 -3 6 -8 10 -11 10 -2 0
-4 -4 -4 -10z"/>
<path d="M1945 2040 c-3 -5 1 -10 10 -10 9 0 13 5 10 10 -3 6 -8 10 -10 10 -2
0 -7 -4 -10 -10z"/>
<path d="M2551 2034 c0 -11 3 -14 6 -6 3 7 2 16 -1 19 -3 4 -6 -2 -5 -13z"/>
<path d="M1213 2005 c-18 -15 -56 -30 -89 -36 -55 -10 -66 -10 -109 6 -11 4
-7 -2 10 -14 29 -20 39 -21 105 -7 61 13 79 20 84 32 3 8 12 14 20 14 7 0 16
7 20 15 8 22 -4 18 -41 -10z"/>
<path d="M1757 1991 c11 -10 30 -22 44 -26 33 -11 113 -14 97 -3 -7 4 -32 8
-55 8 -24 0 -43 5 -43 11 0 5 -4 7 -10 4 -5 -3 -10 -2 -10 3 0 5 -10 12 -21
15 -21 6 -21 6 -2 -12z"/>
<path d="M970 1980 c0 -5 5 -10 11 -10 5 0 7 5 4 10 -3 6 -8 10 -11 10 -2 0
-4 -4 -4 -10z"/>
<path d="M548 1969 c-3 -9 -2 -22 2 -30 13 -19 18 -8 10 21 -4 19 -7 21 -12 9z"/>
<path d="M1920 1958 c0 -4 11 -9 25 -9 14 -1 30 -2 35 -3 6 -1 10 3 10 8 0 5
-16 10 -35 11 -19 1 -35 -2 -35 -7z"/>
<path d="M2415 1930 c8 -13 -4 -72 -13 -66 -4 2 -17 -9 -29 -24 -22 -27 -22
-28 -3 -33 11 -3 20 -1 20 5 0 5 9 21 20 35 21 27 28 93 9 93 -5 0 -7 -5 -4
-10z"/>
<path d="M560 1910 c0 -5 7 -10 15 -10 8 0 15 -4 15 -9 0 -5 7 -12 15 -15 13
-5 12 -1 -2 19 -18 25 -43 33 -43 15z"/>
<path d="M1165 1910 c-3 -5 1 -10 10 -10 9 0 13 5 10 10 -3 6 -8 10 -10 10 -2
0 -7 -4 -10 -10z"/>
<path d="M695 1861 c-3 -5 -1 -12 5 -16 5 -3 10 1 10 9 0 18 -6 21 -15 7z"/>
<path d="M575 1801 c-3 -6 -1 -11 4 -11 6 0 11 -8 11 -19 0 -10 6 -24 14 -30
12 -10 13 -8 9 11 -9 34 -30 61 -38 49z"/>
<path d="M1650 1799 c0 -8 9 -25 21 -37 11 -13 17 -28 13 -35 -4 -6 -3 -9 1
-4 5 4 17 -5 27 -20 10 -16 18 -22 18 -15 0 16 -21 53 -41 72 -8 8 -21 24 -27
35 -9 15 -11 16 -12 4z"/>
<path d="M1294 1776 c-49 -55 -70 -150 -38 -177 26 -21 149 -61 134 -44 -7 8
-30 20 -51 25 -42 12 -44 30 -3 30 29 0 114 -38 114 -51 0 -5 12 -9 28 -8 l27
0 -25 12 c-14 6 -27 14 -30 18 -25 31 -140 53 -155 28 -11 -17 -45 21 -45 51
0 30 49 110 67 110 7 0 13 4 13 8 0 12 -24 11 -36 -2z"/>
<path d="M2106 1765 c-3 -8 -1 -15 4 -15 6 0 10 7 10 15 0 8 -2 15 -4 15 -2 0
-6 -7 -10 -15z"/>
<path d="M2390 1750 c0 -5 5 -10 10 -10 6 0 10 5 10 10 0 6 -4 10 -10 10 -5 0
-10 -4 -10 -10z"/>
<path d="M575 1730 c3 -5 8 -10 11 -10 2 0 4 5 4 10 0 6 -5 10 -11 10 -5 0 -7
-4 -4 -10z"/>
<path d="M1635 1730 c3 -5 8 -10 11 -10 2 0 4 5 4 10 0 6 -5 10 -11 10 -5 0
-7 -4 -4 -10z"/>
<path d="M585 1699 c-7 -11 31 -49 49 -49 6 0 3 5 -7 11 -9 6 -15 15 -11 20 3
5 0 8 -8 7 -7 -2 -12 3 -10 10 3 15 -4 16 -13 1z"/>
<path d="M1730 1649 c0 -14 -6 -34 -14 -44 -12 -17 -17 -18 -40 -7 -40 18 -84
15 -122 -9 -49 -30 -42 -42 9 -14 45 26 73 31 97 15 12 -7 8 -11 -18 -16 -18
-4 -35 -11 -38 -16 -6 -9 24 -4 86 16 41 13 67 56 51 83 -9 16 -10 15 -11 -8z"/>
<path d="M680 1640 c0 -5 5 -10 11 -10 5 0 7 5 4 10 -3 6 -8 10 -11 10 -2 0
-4 -4 -4 -10z"/>
<path d="M690 1601 c0 -11 5 -23 10 -26 6 -3 10 3 10 14 0 11 -4 23 -10 26 -5
3 -10 -3 -10 -14z"/>
<path d="M805 1610 c3 -5 8 -10 11 -10 2 0 4 5 4 10 0 6 -5 10 -11 10 -5 0 -7
-4 -4 -10z"/>
<path d="M2269 1597 c-11 -14 -13 -29 -8 -42 7 -18 8 -17 8 7 1 15 6 30 12 34
8 5 10 -2 6 -22 -14 -74 -29 -124 -37 -124 -5 0 -6 -7 -3 -17 5 -12 3 -14 -8
-8 -8 4 -11 5 -7 1 4 -5 3 -19 -3 -33 -6 -16 -6 -22 1 -18 6 3 10 13 10 21 0
8 4 14 8 14 5 0 14 24 21 53 7 28 16 63 21 77 18 54 21 80 8 80 -7 0 -20 -11
-29 -23z"/>
<path d="M741 1554 c0 -11 3 -14 6 -6 3 7 2 16 -1 19 -3 4 -6 -2 -5 -13z"/>
<path d="M700 1534 c0 -40 11 -75 21 -69 4 3 6 11 4 18 -2 7 -7 25 -9 41 -7
39 -16 45 -16 10z"/>
<path d="M1345 1510 c-3 -5 -1 -10 4 -10 6 0 11 5 11 10 0 6 -2 10 -4 10 -3 0
-8 -4 -11 -10z"/>
<path d="M1386 1495 c5 -11 2 -14 -12 -9 -11 4 -16 4 -13 0 4 -4 16 -8 28 -11
18 -3 20 -1 11 16 -13 23 -22 26 -14 4z"/>
<path d="M1520 1499 c0 -5 5 -7 10 -4 6 3 10 8 10 11 0 2 -4 4 -10 4 -5 0 -10
-5 -10 -11z"/>
<path d="M2242 1484 c-1 -13 0 -24 2 -24 7 0 14 40 7 44 -4 3 -8 -6 -9 -20z"/>
<path d="M1235 1480 c-3 -6 1 -7 9 -4 18 7 21 14 7 14 -6 0 -13 -4 -16 -10z"/>
<path d="M1788 1483 c7 -3 16 -2 19 1 4 3 -2 6 -13 5 -11 0 -14 -3 -6 -6z"/>
<path d="M1491 1471 c-9 -6 -10 -11 -2 -15 6 -4 9 -12 6 -17 -4 -5 1 -9 11 -9
13 0 14 3 4 15 -6 8 -9 19 -5 25 7 12 4 12 -14 1z"/>
<path d="M1437 1463 c-10 -9 -9 -23 1 -23 5 0 9 7 9 15 0 17 -1 18 -10 8z"/>
<path d="M1770 1459 c0 -5 5 -7 10 -4 6 3 10 8 10 11 0 2 -4 4 -10 4 -5 0 -10
-5 -10 -11z"/>
<path d="M1105 1450 c3 -5 8 -10 11 -10 2 0 4 5 4 10 0 6 -5 10 -11 10 -5 0
-7 -4 -4 -10z"/>
<path d="M1207 1444 c-8 -8 1 -24 12 -24 4 0 8 7 8 15 0 16 -9 20 -20 9z"/>
<path d="M720 1426 c0 -2 7 -20 15 -39 8 -20 12 -42 9 -50 -3 -8 0 -18 7 -23
7 -4 10 -3 5 4 -3 5 -1 12 6 14 8 3 6 18 -10 51 -19 40 -32 58 -32 43z"/>
<path d="M1410 1400 c19 -13 30 -13 30 0 0 6 -10 10 -22 10 -19 0 -20 -2 -8
-10z"/>
<path d="M1305 1390 c-16 -6 -14 -8 13 -7 17 0 32 4 32 9 0 10 -18 9 -45 -2z"/>
<path d="M1464 1385 c8 -8 17 -15 20 -15 3 0 3 7 0 15 -4 8 -13 15 -21 15 -12
0 -12 -2 1 -15z"/>
<path d="M2200 1380 c0 -11 2 -20 4 -20 2 0 6 9 9 20 3 11 1 20 -4 20 -5 0 -9
-9 -9 -20z"/>
<path d="M931 1374 c0 -11 3 -14 6 -6 3 7 2 16 -1 19 -3 4 -6 -2 -5 -13z"/>
<path d="M1245 1378 c-25 -15 -57 -18 -70 -7 -7 5 -11 0 -12 -12 -1 -13 5 -19
21 -19 12 0 27 -5 33 -11 16 -16 226 -19 327 -4 50 7 94 11 98 9 7 -5 74 -7
128 -5 33 2 54 16 45 30 -5 9 -12 8 -28 -2 -16 -10 -59 -14 -152 -15 -139 -2
-164 -4 -182 -15 -6 -4 -33 -3 -59 2 -27 5 -70 7 -95 4 -32 -4 -54 -1 -75 11
-16 9 -22 15 -14 14 21 -3 60 12 60 23 0 11 0 11 -25 -3z"/>
<path d="M1120 1370 c0 -5 5 -10 11 -10 5 0 7 5 4 10 -3 6 -8 10 -11 10 -2 0
-4 -4 -4 -10z"/>
<path d="M1500 1376 c0 -2 7 -7 16 -10 8 -3 12 -2 9 4 -6 10 -25 14 -25 6z"/>
<path d="M2216 1343 c-6 -14 -5 -15 5 -6 7 7 10 15 7 18 -3 3 -9 -2 -12 -12z"/>
<path d="M2180 1321 c0 -6 4 -11 10 -11 5 0 7 -8 3 -17 -7 -20 -4 -18 17 12 8
11 10 17 6 13 -5 -4 -15 -3 -23 3 -9 9 -13 8 -13 0z"/>
<path d="M767 1306 c-4 -10 -1 -13 8 -9 8 3 12 9 9 14 -7 12 -11 11 -17 -5z"/>
<path d="M1760 1301 c0 -6 4 -12 8 -15 5 -3 9 1 9 9 0 8 -4 15 -9 15 -4 0 -8
-4 -8 -9z"/>
<path d="M785 1279 c-4 -6 -4 -13 -1 -16 3 -4 6 -1 6 6 0 7 5 9 12 5 7 -4 8
-3 4 4 -9 15 -13 15 -21 1z"/>
<path d="M1215 1260 c10 -11 20 -18 23 -15 7 6 -18 35 -31 35 -5 0 -2 -9 8
-20z"/>
<path d="M1501 1264 c0 -11 3 -14 6 -6 3 7 2 16 -1 19 -3 4 -6 -2 -5 -13z"/>
<path d="M2170 1260 c-13 -8 -12 -10 3 -10 9 0 17 5 17 10 0 12 -1 12 -20 0z"/>
<path d="M800 1243 c0 -15 2 -16 10 -3 9 13 10 13 11 0 1 -8 1 -22 0 -30 -1
-11 1 -10 10 3 8 13 7 22 -1 33 -17 19 -30 18 -30 -3z"/>
<path d="M1706 1244 c-5 -13 -4 -14 7 -6 8 7 17 9 20 5 4 -3 7 -1 7 5 0 18
-27 14 -34 -4z"/>
<path d="M1531 1234 c0 -11 3 -14 6 -6 3 7 2 16 -1 19 -3 4 -6 -2 -5 -13z"/>
<path d="M1250 1230 c0 -5 5 -10 10 -10 6 0 10 5 10 10 0 6 -4 10 -10 10 -5 0
-10 -4 -10 -10z"/>
<path d="M1480 1225 c0 -8 4 -15 10 -15 5 0 7 7 4 15 -4 8 -8 15 -10 15 -2 0
-4 -7 -4 -15z"/>
<path d="M2143 1204 c-3 -8 -1 -20 6 -27 8 -8 11 -4 11 16 0 30 -7 35 -17 11z"/>
<path d="M834 1188 c-4 -7 -3 -8 4 -4 8 5 12 -4 12 -28 0 -25 5 -36 14 -36 10
0 17 -16 21 -47 3 -27 11 -56 16 -66 5 -10 7 -27 4 -38 -5 -14 -3 -17 10 -13
9 4 13 13 11 23 -14 44 -26 114 -21 119 3 3 13 -2 23 -11 10 -9 32 -20 50 -23
17 -3 33 -13 36 -21 4 -9 13 -13 22 -9 8 3 13 2 9 -3 -14 -23 183 -161 265
-185 74 -22 220 -30 300 -17 85 14 193 71 276 146 24 23 226 180 234 183 22 8
22 -155 0 -198 -13 -25 -16 -73 -5 -77 14 -4 36 99 36 169 0 49 -18 138 -28
138 -2 0 -18 -15 -36 -32 -18 -18 -43 -40 -56 -48 -31 -20 -84 -61 -173 -132
-25 -21 -49 -38 -52 -38 -4 0 -23 -11 -44 -23 -67 -43 -140 -61 -248 -63 -55
-1 -123 2 -150 7 -58 10 -145 49 -138 60 3 5 -1 7 -8 4 -13 -4 -33 10 -157
108 -34 27 -66 45 -71 42 -6 -4 -27 6 -48 21 -20 16 -43 29 -50 30 -8 2 -16 4
-18 6 -3 4 -11 40 -13 61 -1 11 -19 8 -27 -5z"/>
<path d="M1460 1190 c-9 -6 -10 -10 -3 -10 6 0 15 5 18 10 8 12 4 12 -15 0z"/>
<path d="M1357 1168 c2 -5 21 -8 42 -8 20 0 41 -4 47 -9 10 -9 144 5 156 17 4
4 -51 7 -122 7 -70 0 -126 -3 -123 -7z"/>
<path d="M2156 1145 c4 -8 11 -15 16 -15 6 0 5 6 -2 15 -7 8 -14 15 -16 15 -2
0 -1 -7 2 -15z"/>
<path d="M1765 1140 c-3 -5 -1 -10 4 -10 6 0 11 5 11 10 0 6 -2 10 -4 10 -3 0
-8 -4 -11 -10z"/>
<path d="M2163 940 c-7 -101 -11 -186 -8 -188 2 -2 6 32 10 75 3 43 9 107 13
143 4 36 5 85 2 110 -3 28 -10 -25 -17 -140z"/>
<path d="M856 1075 c12 -68 25 -97 19 -42 -3 27 -9 56 -15 65 -8 13 -9 6 -4
-23z"/>
<path d="M804 1060 c-5 -33 -12 -41 -33 -47 -14 -3 -30 -8 -36 -12 -5 -3 -16
-6 -23 -7 -17 -3 -27 -12 -21 -19 3 -2 17 2 31 9 20 10 29 11 39 2 9 -8 10 -8
5 2 -4 7 -1 12 8 12 8 0 16 -5 18 -12 3 -9 6 -9 12 0 4 7 2 12 -3 12 -7 0 -8
6 -2 18 17 35 29 82 20 82 -5 0 -12 -18 -15 -40z"/>
<path d="M831 1075 c0 -5 6 -32 13 -60 8 -27 14 -41 14 -30 0 21 -25 107 -27
90z"/>
<path d="M2203 1015 c0 -22 2 -30 4 -17 2 12 2 30 0 40 -3 9 -5 -1 -4 -23z"/>
<path d="M822 1020 c0 -14 2 -19 5 -12 2 6 2 18 0 25 -3 6 -5 1 -5 -13z"/>
<path d="M2260 998 c0 -9 -6 -19 -12 -22 -7 -3 -3 -3 9 0 18 4 24 -1 32 -28 5
-18 10 -26 10 -16 1 14 5 15 31 5 20 -8 26 -14 17 -20 -7 -5 -4 -6 9 -2 39 10
333 -142 318 -166 -3 -5 3 -6 12 -2 11 4 15 3 10 -5 -3 -6 -1 -14 5 -18 8 -4
9 -3 5 4 -10 17 9 15 23 -2 19 -23 -6 -30 -37 -11 -15 10 -49 35 -77 55 -57
43 -186 106 -270 131 -54 16 -5 -17 53 -36 28 -9 50 -21 47 -26 -4 -5 2 -6 11
-2 13 5 15 3 9 -7 -5 -9 -4 -11 4 -6 14 9 53 -2 46 -14 -3 -4 3 -7 13 -6 9 0
16 -4 15 -11 -2 -8 4 -10 14 -6 12 5 14 3 8 -7 -5 -9 -4 -11 4 -6 7 5 27 -6
50 -26 60 -52 75 -63 96 -66 34 -6 38 -18 36 -104 -1 -46 8 -180 19 -298 11
-118 20 -226 20 -240 0 -18 3 -21 12 -12 9 9 8 52 -6 189 -27 269 -32 427 -15
421 10 -3 16 -32 21 -99 4 -52 15 -178 24 -281 9 -102 14 -199 10 -215 -5 -20
-4 -24 4 -13 14 22 12 169 -6 374 -16 191 -16 210 3 198 8 -5 18 -71 29 -188
14 -160 14 -230 -1 -344 -4 -32 -4 -32 4 -8 24 72 30 223 16 363 -8 77 -15
147 -15 157 0 9 -21 29 -47 44 -54 31 -66 45 -53 58 5 5 30 -9 61 -35 47 -39
136 -85 147 -75 2 3 -16 13 -40 24 -24 10 -68 39 -98 64 -31 24 -68 53 -83 63
-19 12 -25 21 -18 28 7 7 35 -8 88 -50 77 -59 141 -98 149 -91 2 3 -24 23 -59
46 -34 23 -93 64 -131 91 -69 49 -216 131 -232 131 -5 -1 5 -8 21 -16 95 -50
165 -98 156 -107 -6 -6 -29 3 -65 27 -78 52 -296 158 -351 172 -26 6 -27 8
-10 15 19 7 19 8 -2 8 -12 1 -27 9 -32 19 -9 15 -10 15 -11 0z m503 -294 c11
-11 -3 -24 -18 -18 -8 4 -12 10 -9 15 6 11 18 12 27 3z"/>
<path d="M836 966 c14 -79 13 -88 -6 -36 -22 62 -20 39 5 -65 10 -38 22 -87
27 -109 5 -21 11 -36 13 -34 2 2 -3 32 -11 67 -12 52 -13 74 -3 113 6 27 8 52
5 55 -3 4 -6 -5 -7 -18 0 -19 -4 -15 -15 16 -8 25 -12 29 -8 11z"/>
<path d="M2217 970 c-4 -14 -6 -41 -6 -60 1 -34 2 -33 10 10 10 51 7 89 -4 50z"/>
<path d="M882 955 c0 -16 2 -22 5 -12 2 9 2 23 0 30 -3 6 -5 -1 -5 -18z"/>
<path d="M1540 970 c8 -5 20 -10 25 -10 6 0 3 5 -5 10 -8 5 -19 10 -25 10 -5
0 -3 -5 5 -10z"/>
<path d="M2192 943 c-1 -17 -5 -40 -8 -50 -5 -14 -4 -15 5 -7 7 7 11 28 8 50
-3 35 -4 35 -5 7z"/>
<path d="M2045 949 c-4 -6 -5 -12 -2 -15 2 -3 7 2 10 11 7 17 1 20 -8 4z"/>
<path d="M2243 925 c0 -22 2 -30 4 -17 2 12 2 30 0 40 -3 9 -5 -1 -4 -23z"/>
<path d="M927 827 c13 -62 28 -125 33 -141 13 -37 13 -49 0 -41 -6 3 -7 -1 -4
-9 3 -9 10 -14 14 -11 5 3 6 -4 3 -15 -3 -11 -1 -20 3 -20 5 0 10 -17 12 -38
1 -20 7 -39 12 -40 6 -2 8 -8 4 -13 -3 -5 2 -16 10 -24 14 -14 16 -13 22 10 3
14 4 29 0 32 -3 4 -6 -2 -7 -13 -1 -17 -65 223 -99 369 -24 106 -27 68 -3 -46z"/>
<path d="M801 908 c-1 -9 3 -27 8 -40 5 -13 19 -67 32 -121 12 -53 24 -95 26
-93 5 5 -33 172 -52 231 -7 22 -14 32 -14 23z"/>
<path d="M866 879 c-3 -18 -4 -34 -2 -36 2 -3 7 10 11 27 4 17 5 34 2 36 -2 3
-7 -10 -11 -27z"/>
<path d="M892 895 c0 -11 4 -31 8 -45 6 -20 8 -21 8 -5 0 11 -4 31 -8 45 -6
20 -8 21 -8 5z"/>
<path d="M1980 885 c-11 -13 -10 -14 4 -9 9 3 16 10 16 15 0 13 -6 11 -20 -6z"/>
<path d="M2098 868 c8 -8 8 -16 0 -32 -6 -12 -11 -41 -9 -66 1 -25 -5 -57 -13
-72 -9 -17 -11 -30 -5 -34 6 -3 4 -15 -5 -30 -19 -28 -21 -48 -4 -38 8 5 9 2
4 -11 -4 -11 -10 -38 -13 -62 -3 -24 -11 -43 -17 -43 -7 0 -7 -3 -1 -8 11 -8
15 -53 4 -47 -4 3 -9 -8 -12 -23 -2 -15 -16 -69 -29 -120 -14 -50 -21 -92 -16
-92 4 0 11 14 15 32 5 27 7 29 13 13 4 -11 4 -29 -1 -41 -6 -18 -4 -20 17 -16
24 4 24 3 26 -79 l1 -84 7 65 7 65 1 -62 c1 -39 6 -63 13 -63 7 0 9 12 7 32
l-5 32 27 -32 c25 -30 60 -46 44 -20 -5 7 -7 31 -7 53 1 36 1 37 -5 10 -9 -39
-28 -33 -25 8 2 31 2 31 -8 7 -8 -20 -12 -22 -19 -10 -5 9 -5 19 1 27 6 6 9
22 6 35 -3 19 -5 18 -6 -7 -1 -22 -4 -26 -10 -16 -5 8 -7 21 -3 29 3 10 1 13
-6 8 -15 -9 -15 3 2 84 8 36 13 77 12 92 -1 15 2 24 7 21 6 -4 8 9 4 33 -4 21
0 80 8 129 8 50 15 94 15 98 0 5 4 5 10 2 6 -4 7 1 3 11 -6 15 -8 69 -3 77 5
7 11 121 6 117 -8 -9 -74 -509 -78 -588 -1 -32 -5 -42 -15 -37 -8 3 -17 5 -19
5 -2 0 -4 7 -4 16 0 8 4 13 9 10 5 -4 7 2 5 11 -9 45 -11 92 -3 87 5 -3 9 10
10 28 1 30 2 31 8 8 6 -19 9 -10 14 40 4 36 18 150 31 255 14 104 22 193 20
197 -3 4 -10 8 -17 8 -8 0 -8 -3 1 -12z m-81 -600 c-3 -7 -5 -2 -5 12 0 14 2
19 5 13 2 -7 2 -19 0 -25z"/>
<path d="M2216 800 c-10 -47 -16 -105 -14 -130 l5 -45 1 52 c1 28 9 82 17 118
9 37 14 72 12 78 -2 6 -11 -27 -21 -73z"/>
<path d="M440 860 c-8 -5 -10 -10 -5 -10 6 0 17 5 25 10 8 5 11 10 5 10 -5 0
-17 -5 -25 -10z"/>
<path d="M728 863 c7 -3 16 -2 19 1 4 3 -2 6 -13 5 -11 0 -14 -3 -6 -6z"/>
<path d="M2202 845 c0 -16 2 -22 5 -12 2 9 2 23 0 30 -3 6 -5 -1 -5 -18z"/>
<path d="M876 834 c-4 -14 -5 -28 -3 -31 3 -2 8 8 11 23 4 14 5 28 3 31 -3 2
-8 -8 -11 -23z"/>
<path d="M2175 813 c-3 -26 -2 -59 4 -73 8 -20 9 -15 5 25 -4 37 -3 46 5 35 8
-11 9 -6 5 20 -9 49 -11 48 -19 -7z"/>
<path d="M1916 835 c-11 -8 -15 -15 -9 -15 6 0 16 7 23 15 16 19 11 19 -14 0z"/>
<path d="M750 811 c0 -5 -37 -24 -82 -42 -59 -25 -88 -43 -107 -68 -14 -19
-39 -48 -56 -64 -19 -19 -35 -51 -48 -95 -65 -234 -67 -243 -67 -384 0 -86 4
-138 10 -138 6 0 10 53 10 140 0 140 11 205 53 325 8 22 18 59 22 82 3 23 14
48 22 55 15 12 16 8 10 -37 -8 -67 7 -108 16 -44 3 25 4 56 1 70 -4 21 -3 22
5 4 9 -19 10 -18 10 5 1 19 3 22 10 11 6 -10 8 -1 4 25 -6 48 1 55 82 82 53
18 92 20 68 3 -5 -3 -16 -46 -26 -96 -9 -49 -34 -178 -57 -285 -35 -166 -40
-206 -34 -267 7 -92 23 -97 17 -5 -4 52 4 107 32 242 20 96 46 227 58 290 12
63 25 118 30 121 5 3 1 9 -8 13 -22 8 -8 29 16 23 15 -4 19 0 19 19 0 13 -2
24 -5 24 -3 0 -5 -4 -5 -9z m-200 -161 c0 -5 -5 -10 -11 -10 -5 0 -7 5 -4 10
3 6 8 10 11 10 2 0 4 -4 4 -10z"/>
<path d="M670 790 c-8 -5 -10 -10 -5 -10 6 0 17 5 25 10 8 5 11 10 5 10 -5 0
-17 -5 -25 -10z"/>
<path d="M880 775 c0 -8 2 -15 4 -15 2 0 6 7 10 15 3 8 1 15 -4 15 -6 0 -10
-7 -10 -15z"/>
<path d="M916 769 c4 -17 3 -20 -4 -11 -12 18 -18 2 -26 -64 l-5 -49 13 55 c8
30 15 46 16 35 1 -16 4 -15 12 8 7 20 7 32 0 39 -8 8 -9 4 -6 -13z"/>
<path d="M2391 774 c0 -11 3 -14 6 -6 3 7 2 16 -1 19 -3 4 -6 -2 -5 -13z"/>
<path d="M2443 720 c0 -41 2 -58 4 -37 2 20 2 54 0 75 -2 20 -4 3 -4 -38z"/>
<path d="M1130 765 c7 -9 15 -13 17 -11 7 7 -7 26 -19 26 -6 0 -6 -6 2 -15z"/>
<path d="M1586 755 c-3 -8 -1 -15 4 -15 6 0 10 7 10 15 0 8 -2 15 -4 15 -2 0
-6 -7 -10 -15z"/>
<path d="M2492 750 c0 -14 2 -19 5 -12 2 6 2 18 0 25 -3 6 -5 1 -5 -13z"/>
<path d="M931 722 c0 -13 -5 -21 -10 -18 -5 4 -7 -4 -3 -16 5 -22 5 -22 14 2
5 13 7 31 5 39 -3 10 -5 7 -6 -7z"/>
<path d="M1178 733 c7 -3 16 -2 19 1 4 3 -2 6 -13 5 -11 0 -14 -3 -6 -6z"/>
<path d="M1386 725 c-17 -13 -18 -15 -3 -15 9 0 17 4 17 9 0 5 10 12 23 14 19
4 19 4 2 5 -11 1 -29 -5 -39 -13z"/>
<path d="M2541 724 c0 -11 3 -14 6 -6 3 7 2 16 -1 19 -3 4 -6 -2 -5 -13z"/>
<path d="M2598 728 c8 -8 13 -54 14 -127 l2 -116 3 110 c3 74 7 105 13 95 8
-13 10 -13 10 1 0 9 -8 23 -18 32 -21 19 -42 23 -24 5z"/>
<path d="M629 718 c-11 -8 -10 -9 4 -4 14 4 16 1 12 -17 -12 -55 -48 -234 -72
-357 -26 -139 -36 -310 -18 -317 7 -2 9 23 7 70 -3 58 7 125 47 327 28 140 53
265 56 276 6 25 -15 37 -36 22z"/>
<path d="M681 714 c0 -11 3 -14 6 -6 3 7 2 16 -1 19 -3 4 -6 -2 -5 -13z"/>
<path d="M2868 718 c6 -8 35 -27 64 -43 67 -35 51 -17 -21 25 -30 17 -50 25
-43 18z"/>
<path d="M571 598 c-13 -62 -30 -144 -37 -183 -16 -77 -31 -384 -19 -373 4 4
9 50 10 102 4 136 19 241 64 443 23 101 25 123 13 123 -4 0 -18 -51 -31 -112z"/>
<path d="M2153 657 c0 -28 -11 -101 -22 -162 -12 -60 -24 -143 -26 -185 l-4
-75 9 75 c6 41 18 120 29 175 25 131 36 225 25 225 -5 0 -10 -24 -11 -53z"/>
<path d="M2182 680 c0 -19 2 -27 5 -17 2 9 2 25 0 35 -3 9 -5 1 -5 -18z"/>
<path d="M771 659 c2 -45 -13 -143 -56 -371 -25 -132 -33 -268 -16 -268 6 0
10 28 10 63 0 34 9 119 21 187 12 69 27 166 33 217 7 50 15 94 18 98 16 15 45
-166 59 -361 11 -160 18 -204 32 -204 5 0 7 12 4 28 -3 15 -8 59 -11 97 -15
172 -28 276 -46 360 -11 50 -25 113 -30 140 -14 65 -19 69 -18 14z"/>
<path d="M1448 693 c7 -3 16 -2 19 1 4 3 -2 6 -13 5 -11 0 -14 -3 -6 -6z"/>
<path d="M1950 696 c0 -2 7 -7 16 -10 8 -3 12 -2 9 4 -6 10 -25 14 -25 6z"/>
<path d="M2393 650 c0 -30 2 -43 4 -27 2 15 2 39 0 55 -2 15 -4 2 -4 -28z"/>
<path d="M621 674 c0 -11 3 -14 6 -6 3 7 2 16 -1 19 -3 4 -6 -2 -5 -13z"/>
<path d="M901 674 c0 -11 3 -14 6 -6 3 7 2 16 -1 19 -3 4 -6 -2 -5 -13z"/>
<path d="M936 666 c-6 -23 22 -122 31 -112 3 3 -2 24 -11 46 -9 23 -13 52 -10
65 3 14 4 25 1 25 -3 0 -8 -11 -11 -24z"/>
<path d="M1306 675 c10 -8 23 -15 28 -15 6 0 1 7 -10 15 -10 8 -23 15 -28 15
-6 0 -1 -7 10 -15z"/>
<path d="M2141 674 c0 -11 3 -14 6 -6 3 7 2 16 -1 19 -3 4 -6 -2 -5 -13z"/>
<path d="M2649 658 c-4 -109 5 -244 20 -313 10 -44 17 -98 15 -120 l-3 -40 8
35 c13 57 13 -2 -1 -98 -8 -59 -8 -86 0 -94 15 -15 26 85 18 179 -4 43 -7 96
-8 118 0 29 -2 35 -8 20 -12 -33 -20 42 -23 202 -1 79 -5 143 -9 143 -5 0 -9
-15 -9 -32z"/>
<path d="M671 664 c0 -11 3 -14 6 -6 3 7 2 16 -1 19 -3 4 -6 -2 -5 -13z"/>
<path d="M1240 670 c0 -5 5 -10 11 -10 5 0 7 5 4 10 -3 6 -8 10 -11 10 -2 0
-4 -4 -4 -10z"/>
<path d="M2700 563 c0 -65 9 -194 20 -288 11 -93 20 -189 20 -212 0 -24 5 -43
10 -43 13 0 13 -20 -10 225 -11 116 -20 258 -20 317 0 60 -4 110 -10 113 -6 4
-10 -36 -10 -112z"/>
<path d="M1190 660 c0 -5 5 -10 11 -10 5 0 7 5 4 10 -3 6 -8 10 -11 10 -2 0
-4 -4 -4 -10z"/>
<path d="M1521 656 c-10 -12 -8 -13 8 -9 12 3 21 9 21 14 0 14 -16 11 -29 -5z"/>
<path d="M2681 654 c0 -11 3 -14 6 -6 3 7 2 16 -1 19 -3 4 -6 -2 -5 -13z"/>
<path d="M1410 650 c8 -5 20 -10 25 -10 6 0 3 5 -5 10 -8 5 -19 10 -25 10 -5
0 -3 -5 5 -10z"/>
<path d="M2552 630 c0 -19 2 -27 5 -17 2 9 2 25 0 35 -3 9 -5 1 -5 -18z"/>
<path d="M2734 555 c0 -60 1 -84 3 -52 2 32 2 81 0 110 -2 29 -3 3 -3 -58z"/>
<path d="M612 630 c0 -14 2 -19 5 -12 2 6 2 18 0 25 -3 6 -5 1 -5 -13z"/>
<path d="M910 641 c0 -7 14 -54 32 -103 27 -73 34 -85 40 -67 5 12 6 24 3 27
-3 3 -5 -1 -6 -9 0 -14 -8 4 -48 111 -11 30 -20 49 -21 41z"/>
<path d="M1478 643 c7 -3 16 -2 19 1 4 3 -2 6 -13 5 -11 0 -14 -3 -6 -6z"/>
<path d="M2502 620 c0 -19 2 -27 5 -17 2 9 2 25 0 35 -3 9 -5 1 -5 -18z"/>
<path d="M876 597 c3 -26 16 -78 30 -117 13 -38 24 -80 24 -92 0 -13 7 -54 16
-93 9 -38 18 -86 20 -105 3 -19 7 -36 9 -39 9 -9 5 68 -5 94 -6 15 -17 70 -26
123 -8 52 -20 105 -26 116 -7 12 -20 53 -30 91 -15 58 -17 62 -12 22z"/>
<path d="M2015 629 c-3 -4 2 -6 10 -5 21 3 28 13 10 13 -9 0 -18 -4 -20 -8z"/>
<path d="M662 610 c0 -14 2 -19 5 -12 2 6 2 18 0 25 -3 6 -5 1 -5 -13z"/>
<path d="M890 622 c0 -6 13 -47 29 -90 16 -44 37 -122 46 -173 10 -52 21 -98
25 -102 16 -18 -23 164 -57 263 -35 104 -43 124 -43 102z"/>
<path d="M1563 614 c-17 -14 -17 -15 2 -6 11 5 26 7 33 5 17 -6 15 4 -2 10 -8
3 -22 -1 -33 -9z"/>
<path d="M1395 610 c3 -6 13 -10 22 -10 8 0 13 -6 10 -12 -3 -9 8 -14 32 -16
l36 -2 -38 19 c-53 27 -69 32 -62 21z"/>
<path d="M2172 595 c0 -16 2 -22 5 -12 2 9 2 23 0 30 -3 6 -5 -1 -5 -18z"/>
<path d="M2193 585 c0 -22 2 -30 4 -17 2 12 2 30 0 40 -3 9 -5 -1 -4 -23z"/>
<path d="M1080 606 c0 -2 7 -9 15 -16 9 -7 15 -8 15 -2 0 5 -7 12 -15 16 -8 3
-15 4 -15 2z"/>
<path d="M2126 595 c-9 -26 -7 -32 5 -12 6 10 9 21 6 23 -2 3 -7 -2 -11 -11z"/>
<path d="M602 580 c0 -14 2 -19 5 -12 2 6 2 18 0 25 -3 6 -5 1 -5 -13z"/>
<path d="M1517 588 c-15 -12 -14 -13 10 -14 16 -1 22 1 15 3 -6 3 -10 9 -6 14
7 12 1 11 -19 -3z"/>
<path d="M2452 570 c0 -19 2 -27 5 -17 2 9 2 25 0 35 -3 9 -5 1 -5 -18z"/>
<path d="M404 560 c0 -19 -13 -75 -28 -125 -37 -121 -62 -445 -32 -414 2 2 7
60 11 129 4 69 11 153 16 188 12 77 50 197 58 183 4 -5 6 8 6 29 0 28 -3 36
-11 29 -8 -7 -13 -6 -16 3 -3 7 -5 -3 -4 -22z"/>
<path d="M2904 574 c16 -43 18 -283 2 -399 -19 -139 -19 -158 -6 -150 6 3 10
27 10 53 0 26 7 92 15 146 23 155 17 349 -13 361 -10 4 -12 1 -8 -11z"/>
<path d="M366 571 c-3 -5 -24 -82 -46 -172 -34 -139 -40 -178 -40 -271 0 -65
4 -108 10 -108 6 0 10 38 10 93 0 50 3 117 7 147 l8 55 6 -40 c5 -31 6 -27 3
16 -3 48 27 184 61 277 5 14 -11 17 -19 3z"/>
<path d="M651 554 c0 -11 3 -14 6 -6 3 7 2 16 -1 19 -3 4 -6 -2 -5 -13z"/>
<path d="M2403 525 c0 -27 2 -38 4 -22 2 15 2 37 0 50 -2 12 -4 0 -4 -28z"/>
<path d="M2942 545 c0 -16 2 -22 5 -12 2 9 2 23 0 30 -3 6 -5 -1 -5 -18z"/>
<path d="M701 544 c0 -11 3 -14 6 -6 3 7 2 16 -1 19 -3 4 -6 -2 -5 -13z"/>
<path d="M1021 544 c0 -11 3 -14 6 -6 3 7 2 16 -1 19 -3 4 -6 -2 -5 -13z"/>
<path d="M1844 544 c-18 -14 -18 -15 4 -4 12 6 22 13 22 15 0 8 -5 6 -26 -11z"/>
<path d="M2121 544 c0 -11 3 -14 6 -6 3 7 2 16 -1 19 -3 4 -6 -2 -5 -13z"/>
<path d="M2151 480 c-8 -47 -15 -105 -17 -130 -1 -25 6 5 17 65 10 61 18 119
16 130 -1 11 -9 -18 -16 -65z"/>
<path d="M2513 520 c0 -25 2 -35 4 -22 2 12 2 32 0 45 -2 12 -4 2 -4 -23z"/>
<path d="M2561 544 c0 -11 3 -14 6 -6 3 7 2 16 -1 19 -3 4 -6 -2 -5 -13z"/>
<path d="M2893 520 c0 -25 2 -35 4 -22 2 12 2 32 0 45 -2 12 -4 2 -4 -23z"/>
<path d="M2964 458 c0 -57 -6 -176 -14 -265 -12 -142 -11 -188 4 -172 10 11
29 520 20 529 -7 7 -10 -24 -10 -92z"/>
<path d="M591 534 c0 -11 3 -14 6 -6 3 7 2 16 -1 19 -3 4 -6 -2 -5 -13z"/>
<path d="M782 530 c0 -14 2 -19 5 -12 2 6 2 18 0 25 -3 6 -5 1 -5 -13z"/>
<path d="M331 524 c0 -11 3 -14 6 -6 3 7 2 16 -1 19 -3 4 -6 -2 -5 -13z"/>
<path d="M641 514 c0 -11 3 -14 6 -6 3 7 2 16 -1 19 -3 4 -6 -2 -5 -13z"/>
<path d="M2180 519 c0 -8 -7 -59 -15 -114 -9 -55 -17 -140 -19 -190 -5 -98 -4
-95 25 144 11 90 17 166 14 169 -3 3 -5 -1 -5 -9z"/>
<path d="M475 424 c-25 -86 -29 -119 -32 -251 -3 -112 -1 -153 8 -153 8 0 10
35 5 132 -7 126 -6 137 18 205 15 40 26 85 26 100 0 20 3 24 9 14 5 -8 7 -21
4 -30 -4 -14 -3 -14 5 -1 6 8 8 18 5 23 -3 5 -8 20 -12 35 -6 21 -12 9 -36
-74z"/>
<path d="M1270 514 c0 -11 40 -47 46 -41 2 2 -7 14 -21 27 -14 13 -25 19 -25
14z"/>
<path d="M2463 475 c0 -27 2 -38 4 -22 2 15 2 37 0 50 -2 12 -4 0 -4 -28z"/>
<path d="M691 494 c0 -11 3 -14 6 -6 3 7 2 16 -1 19 -3 4 -6 -2 -5 -13z"/>
<path d="M2350 345 c0 -93 2 -166 5 -163 8 7 8 318 1 326 -3 3 -6 -70 -6 -163z"/>
<path d="M2842 480 c0 -19 2 -27 5 -17 2 9 2 25 0 35 -3 9 -5 1 -5 -18z"/>
<path d="M321 484 c0 -11 3 -14 6 -6 3 7 2 16 -1 19 -3 4 -6 -2 -5 -13z"/>
<path d="M581 484 c0 -11 3 -14 6 -6 3 7 2 16 -1 19 -3 4 -6 -2 -5 -13z"/>
<path d="M791 471 c-2 -58 -34 -216 -40 -199 -3 9 -7 -44 -9 -118 -2 -93 0
-134 8 -129 5 3 10 36 10 71 0 54 34 295 45 314 1 3 -1 25 -5 50 -7 40 -8 42
-9 11z"/>
<path d="M2683 450 c0 -30 2 -43 4 -27 2 15 2 39 0 55 -2 15 -4 2 -4 -28z"/>
<path d="M2953 455 c0 -27 2 -38 4 -22 2 15 2 37 0 50 -2 12 -4 0 -4 -28z"/>
<path d="M631 464 c0 -11 3 -14 6 -6 3 7 2 16 -1 19 -3 4 -6 -2 -5 -13z"/>
<path d="M2573 445 c0 -22 2 -30 4 -17 2 12 2 30 0 40 -3 9 -5 -1 -4 -23z"/>
<path d="M2620 471 c0 -6 4 -13 10 -16 6 -3 7 1 4 9 -7 18 -14 21 -14 7z"/>
<path d="M2793 430 c0 -30 2 -43 4 -27 2 15 2 39 0 55 -2 15 -4 2 -4 -28z"/>
<path d="M96 428 c-9 -83 -26 -401 -21 -406 11 -12 15 11 25 168 5 91 12 191
14 223 5 66 -10 78 -18 15z"/>
<path d="M1041 454 c0 -11 3 -14 6 -6 3 7 2 16 -1 19 -3 4 -6 -2 -5 -13z"/>
<path d="M572 440 c0 -14 2 -19 5 -12 2 6 2 18 0 25 -3 6 -5 1 -5 -13z"/>
<path d="M1914 444 c-18 -14 -18 -15 4 -4 12 6 22 13 22 15 0 8 -5 6 -26 -11z"/>
<path d="M2101 444 c0 -11 3 -14 6 -6 3 7 2 16 -1 19 -3 4 -6 -2 -5 -13z"/>
<path d="M2413 420 c0 -25 2 -35 4 -22 2 12 2 32 0 45 -2 12 -4 2 -4 -23z"/>
<path d="M2903 405 c0 -27 2 -38 4 -22 2 15 2 37 0 50 -2 12 -4 0 -4 -28z"/>
<path d="M2523 385 c0 -33 2 -45 4 -27 2 18 2 45 0 60 -2 15 -4 0 -4 -33z"/>
<path d="M2625 415 c4 -16 7 -66 7 -110 1 -77 1 -78 8 -25 l7 55 1 -71 c1 -39
-3 -108 -9 -153 -10 -72 -8 -104 5 -90 4 5 12 73 21 184 6 65 3 94 -14 154
-20 71 -42 118 -26 56z"/>
<path d="M251 414 c0 -11 3 -14 6 -6 3 7 2 16 -1 19 -3 4 -6 -2 -5 -13z"/>
<path d="M621 414 c0 -11 3 -14 6 -6 3 7 2 16 -1 19 -3 4 -6 -2 -5 -13z"/>
<path d="M1052 410 c0 -14 2 -19 5 -12 2 6 2 18 0 25 -3 6 -5 1 -5 -13z"/>
<path d="M1107 383 c8 -27 15 -68 15 -93 1 -26 3 -34 6 -20 2 14 9 28 16 32 8
6 7 8 -3 8 -9 0 -12 8 -9 25 3 15 1 22 -5 18 -6 -4 -8 0 -4 10 3 9 1 19 -4 23
-6 3 -9 15 -6 25 3 12 0 19 -8 19 -10 0 -10 -9 2 -47z"/>
<path d="M1630 420 c8 -5 20 -10 25 -10 6 0 3 5 -5 10 -8 5 -19 10 -25 10 -5
0 -3 -5 5 -10z"/>
<path d="M2743 380 c0 -30 2 -43 4 -27 2 15 2 39 0 55 -2 15 -4 2 -4 -28z"/>
<path d="M73 360 c0 -36 2 -50 4 -32 2 17 2 47 0 65 -2 17 -4 3 -4 -33z"/>
<path d="M451 404 c0 -11 3 -14 6 -6 3 7 2 16 -1 19 -3 4 -6 -2 -5 -13z"/>
<path d="M671 404 c0 -11 3 -14 6 -6 3 7 2 16 -1 19 -3 4 -6 -2 -5 -13z"/>
<path d="M500 401 c0 -6 4 -13 10 -16 6 -3 7 1 4 9 -7 18 -14 21 -14 7z"/>
<path d="M562 385 c0 -16 2 -22 5 -12 2 9 2 23 0 30 -3 6 -5 -1 -5 -18z"/>
<path d="M391 384 c0 -11 3 -14 6 -6 3 7 2 16 -1 19 -3 4 -6 -2 -5 -13z"/>
<path d="M2853 360 c0 -25 2 -35 4 -22 2 12 2 32 0 45 -2 12 -4 2 -4 -23z"/>
<path d="M242 370 c0 -14 2 -19 5 -12 2 6 2 18 0 25 -3 6 -5 1 -5 -13z"/>
<path d="M123 310 c0 -41 2 -58 4 -37 2 20 2 54 0 75 -2 20 -4 3 -4 -38z"/>
<path d="M481 332 c-12 -50 -11 -258 1 -239 4 6 9 -5 11 -24 2 -19 3 -9 1 21
-2 30 -6 80 -10 110 -3 31 -1 82 5 114 13 73 8 85 -8 18z"/>
<path d="M611 364 c0 -11 3 -14 6 -6 3 7 2 16 -1 19 -3 4 -6 -2 -5 -13z"/>
<path d="M806 348 c-3 -18 -1 -49 3 -68 8 -31 9 -27 10 33 1 73 -3 86 -13 35z"/>
<path d="M2473 315 c0 -38 2 -53 4 -32 2 20 2 52 0 70 -2 17 -4 1 -4 -38z"/>
<path d="M1425 360 c-3 -5 -1 -10 4 -10 6 0 11 5 11 10 0 6 -2 10 -4 10 -3 0
-8 -4 -11 -10z"/>
<path d="M2584 265 c0 -60 1 -84 3 -52 2 32 2 81 0 110 -2 29 -3 3 -3 -58z"/>
<path d="M1061 344 c0 -11 3 -14 6 -6 3 7 2 16 -1 19 -3 4 -6 -2 -5 -13z"/>
<path d="M381 334 c0 -11 3 -14 6 -6 3 7 2 16 -1 19 -3 4 -6 -2 -5 -13z"/>
<path d="M431 334 c0 -11 3 -14 6 -6 3 7 2 16 -1 19 -3 4 -6 -2 -5 -13z"/>
<path d="M1475 340 c-3 -5 -1 -10 4 -10 6 0 11 5 11 10 0 6 -2 10 -4 10 -3 0
-8 -4 -11 -10z"/>
<path d="M502 320 c0 -14 2 -19 5 -12 2 6 2 18 0 25 -3 6 -5 1 -5 -13z"/>
<path d="M552 320 c0 -14 2 -19 5 -12 2 6 2 18 0 25 -3 6 -5 1 -5 -13z"/>
<path d="M2803 305 c0 -22 2 -30 4 -17 2 12 2 30 0 40 -3 9 -5 -1 -4 -23z"/>
<path d="M231 314 c0 -11 3 -14 6 -6 3 7 2 16 -1 19 -3 4 -6 -2 -5 -13z"/>
<path d="M601 314 c0 -11 3 -14 6 -6 3 7 2 16 -1 19 -3 4 -6 -2 -5 -13z"/>
<path d="M2042 305 c0 -16 2 -22 5 -12 2 9 2 23 0 30 -3 6 -5 -1 -5 -18z"/>
<path d="M1280 316 c0 -2 7 -7 16 -10 8 -3 12 -2 9 4 -6 10 -25 14 -25 6z"/>
<path d="M2423 275 c0 -27 2 -38 4 -22 2 15 2 37 0 50 -2 12 -4 0 -4 -28z"/>
<path d="M424 165 c0 -82 2 -115 3 -72 2 43 2 110 0 150 -1 40 -3 5 -3 -78z"/>
<path d="M651 294 c0 -11 3 -14 6 -6 3 7 2 16 -1 19 -3 4 -6 -2 -5 -13z"/>
<path d="M2752 280 c0 -19 2 -27 5 -17 2 9 2 25 0 35 -3 9 -5 1 -5 -18z"/>
<path d="M2120 263 c0 -43 5 -41 13 5 4 18 2 32 -3 32 -6 0 -10 -16 -10 -37z"/>
<path d="M592 270 c0 -14 2 -19 5 -12 2 6 2 18 0 25 -3 6 -5 1 -5 -13z"/>
<path d="M792 270 c0 -14 2 -19 5 -12 2 6 2 18 0 25 -3 6 -5 1 -5 -13z"/>
<path d="M1152 274 c10 -10 20 -16 22 -13 3 3 -5 11 -17 18 -21 13 -21 12 -5
-5z"/>
<path d="M1647 279 c7 -7 15 -10 18 -7 3 3 -2 9 -12 12 -14 6 -15 5 -6 -5z"/>
<path d="M2534 185 c0 -55 1 -76 3 -47 2 29 2 74 0 100 -2 26 -3 2 -3 -53z"/>
<path d="M2862 240 c0 -19 2 -27 5 -17 2 9 2 25 0 35 -3 9 -5 1 -5 -18z"/>
<path d="M371 244 c0 -11 3 -14 6 -6 3 7 2 16 -1 19 -3 4 -6 -2 -5 -13z"/>
<path d="M2293 190 c0 -36 2 -50 4 -32 2 17 2 47 0 65 -2 17 -4 3 -4 -33z"/>
<path d="M1114 225 c-3 -8 -4 -20 -2 -27 3 -7 7 -1 10 15 6 29 1 36 -8 12z"/>
<path d="M63 185 c0 -27 2 -38 4 -22 2 15 2 37 0 50 -2 12 -4 0 -4 -28z"/>
<path d="M581 214 c0 -11 3 -14 6 -6 3 7 2 16 -1 19 -3 4 -6 -2 -5 -13z"/>
<path d="M681 214 c0 -11 3 -14 6 -6 3 7 2 16 -1 19 -3 4 -6 -2 -5 -13z"/>
<path d="M781 214 c0 -11 3 -14 6 -6 3 7 2 16 -1 19 -3 4 -6 -2 -5 -13z"/>
<path d="M823 190 c0 -25 2 -35 4 -22 2 12 2 32 0 45 -2 12 -4 2 -4 -23z"/>
<path d="M871 214 c0 -11 3 -14 6 -6 3 7 2 16 -1 19 -3 4 -6 -2 -5 -13z"/>
<path d="M990 220 c0 -5 5 -10 11 -10 5 0 7 5 4 10 -3 6 -8 10 -11 10 -2 0 -4
-4 -4 -10z"/>
<path d="M2813 190 c0 -25 2 -35 4 -22 2 12 2 32 0 45 -2 12 -4 2 -4 -23z"/>
<path d="M731 204 c0 -11 3 -14 6 -6 3 7 2 16 -1 19 -3 4 -6 -2 -5 -13z"/>
<path d="M1924 191 c-16 -15 -49 -42 -73 -60 -24 -17 -39 -31 -33 -31 6 0 14
5 17 10 4 6 10 8 15 5 13 -8 41 6 33 18 -4 6 2 8 15 5 12 -4 20 -3 17 2 -3 4
6 10 20 12 28 6 28 6 15 -44 -9 -31 -17 -39 -48 -48 -20 -5 -47 -10 -59 -10
-34 0 -35 -16 -2 -18 16 -1 43 5 59 13 17 9 30 12 30 7 0 -5 6 -9 14 -9 13 0
26 34 41 106 6 29 5 33 -10 27 -9 -3 -29 -9 -43 -12 -26 -5 -26 -5 8 25 19 17
29 31 23 31 -6 0 -24 -13 -39 -29z"/>
<path d="M2112 180 c0 -19 2 -27 5 -17 2 9 2 25 0 35 -3 9 -5 1 -5 -18z"/>
<path d="M2483 145 c0 -38 2 -53 4 -32 2 20 2 52 0 70 -2 17 -4 1 -4 -38z"/>
<path d="M113 160 c0 -25 2 -35 4 -22 2 12 2 32 0 45 -2 12 -4 2 -4 -23z"/>
<path d="M264 115 c0 -50 1 -71 3 -48 2 23 2 64 0 90 -2 26 -3 8 -3 -42z"/>
<path d="M2763 150 c0 -30 2 -43 4 -28 2 16 2 40 0 56 -2 15 -4 2 -4 -28z"/>
<path d="M1217 179 c7 -7 15 -10 18 -7 3 3 -2 9 -12 12 -14 6 -15 5 -6 -5z"/>
<path d="M2672 155 c0 -16 2 -22 5 -12 2 9 2 23 0 30 -3 6 -5 -1 -5 -18z"/>
<path d="M621 154 c0 -11 3 -14 6 -6 3 7 2 16 -1 19 -3 4 -6 -2 -5 -13z"/>
<path d="M672 145 c0 -16 2 -22 5 -12 2 9 2 23 0 30 -3 6 -5 -1 -5 -18z"/>
<path d="M1360 160 c0 -5 5 -10 11 -10 5 0 7 5 4 10 -3 6 -8 10 -11 10 -2 0
-4 -4 -4 -10z"/>
<path d="M2020 95 c0 -43 4 -75 10 -75 6 0 10 32 10 75 0 43 -4 75 -10 75 -6
0 -10 -32 -10 -75z"/>
<path d="M722 130 c0 -19 2 -27 5 -17 2 9 2 25 0 35 -3 9 -5 1 -5 -18z"/>
<path d="M2433 125 c0 -22 2 -30 4 -17 2 12 2 30 0 40 -3 9 -5 -1 -4 -23z"/>
<path d="M313 85 c0 -38 2 -53 4 -32 2 20 2 52 0 70 -2 17 -4 1 -4 -38z"/>
<path d="M882 125 c0 -16 2 -22 5 -12 2 9 2 23 0 30 -3 6 -5 -1 -5 -18z"/>
<path d="M1998 144 c-5 -4 -8 -19 -8 -33 1 -23 2 -24 11 -8 11 19 9 53 -3 41z"/>
<path d="M1455 130 c-3 -6 1 -7 9 -4 18 7 21 14 7 14 -6 0 -13 -4 -16 -10z"/>
<path d="M2622 120 c0 -14 2 -19 5 -12 2 6 2 18 0 25 -3 6 -5 1 -5 -13z"/>
<path d="M1492 110 c0 -14 2 -19 5 -12 2 6 2 18 0 25 -3 6 -5 1 -5 -13z"/>
<path d="M2723 95 c0 -22 2 -30 4 -17 2 12 2 30 0 40 -3 9 -5 -1 -4 -23z"/>
<path d="M832 95 c0 -16 2 -22 5 -12 2 9 2 23 0 30 -3 6 -5 -1 -5 -18z"/>
<path d="M1858 97 c-51 -24 -102 -77 -74 -77 9 0 16 6 16 13 0 27 37 49 72 43
24 -4 27 -3 13 3 -17 7 -15 10 17 16 21 4 35 11 32 16 -8 13 -24 10 -76 -14z"/>
<path d="M2822 90 c0 -19 2 -27 5 -17 2 9 2 25 0 35 -3 9 -5 1 -5 -18z"/>
<path d="M53 75 c0 -22 2 -30 4 -17 2 12 2 30 0 40 -3 9 -5 -1 -4 -23z"/>
<path d="M2922 80 c0 -19 2 -27 5 -17 2 9 2 25 0 35 -3 9 -5 1 -5 -18z"/>
<path d="M2353 65 c0 -22 2 -30 4 -17 2 12 2 30 0 40 -3 9 -5 -1 -4 -23z"/>
<path d="M1725 70 c-3 -6 1 -7 9 -4 18 7 21 14 7 14 -6 0 -13 -4 -16 -10z"/>
<path d="M2571 64 c0 -11 3 -14 6 -6 3 7 2 16 -1 19 -3 4 -6 -2 -5 -13z"/>
<path d="M2772 50 c0 -19 2 -27 5 -17 2 9 2 25 0 35 -3 9 -5 1 -5 -18z"/>
<path d="M102 45 c0 -17 2 -22 5 -12 2 9 2 23 0 30 -3 6 -5 -1 -5 -18z"/>
<path d="M2972 50 c0 -14 2 -19 5 -12 2 6 2 18 0 25 -3 6 -5 1 -5 -13z"/>
<path d="M891 44 c0 -11 3 -14 6 -6 3 7 2 16 -1 19 -3 4 -6 -2 -5 -13z"/>
<path d="M2302 40 c0 -14 2 -19 5 -12 2 6 2 18 0 25 -3 6 -5 1 -5 -13z"/>
<path d="M841 34 c0 -11 3 -14 6 -6 3 7 2 16 -1 19 -3 4 -6 -2 -5 -13z"/>
</g>
</svg>
